<?xml version="1.0" encoding="UTF-8" standalone="no"?><svg xmlns="http://www.w3.org/2000/svg" xmlns:xlink="http://www.w3.org/1999/xlink" contentScriptType="application/ecmascript" contentStyleType="text/css" height="164px" preserveAspectRatio="none" style="width:870px;height:164px;" version="1.1" viewBox="0 0 870 164" width="870px" zoomAndPan="magnify"><defs/><g><line style="stroke:#000000;stroke-width:1.7;" x1="10" x2="10" y1="10" y2="123.9688"/><line style="stroke:#000000;stroke-width:1.7;" x1="849" x2="849" y1="10" y2="123.9688"/><line style="stroke:#AAAAAA;stroke-width:0.5;stroke-dasharray:3.0,5.0;" x1="44" x2="44" y1="10" y2="123.9688"/><line style="stroke:#AAAAAA;stroke-width:0.5;stroke-dasharray:3.0,5.0;" x1="94" x2="94" y1="10" y2="123.9688"/><line style="stroke:#AAAAAA;stroke-width:0.5;stroke-dasharray:3.0,5.0;" x1="144" x2="144" y1="10" y2="123.9688"/><line style="stroke:#AAAAAA;stroke-width:0.5;stroke-dasharray:3.0,5.0;" x1="194" x2="194" y1="10" y2="123.9688"/><line style="stroke:#AAAAAA;stroke-width:0.5;stroke-dasharray:3.0,5.0;" x1="244" x2="244" y1="10" y2="123.9688"/><line style="stroke:#AAAAAA;stroke-width:0.5;stroke-dasharray:3.0,5.0;" x1="294" x2="294" y1="10" y2="123.9688"/><line style="stroke:#AAAAAA;stroke-width:0.5;stroke-dasharray:3.0,5.0;" x1="344" x2="344" y1="10" y2="123.9688"/><line style="stroke:#AAAAAA;stroke-width:0.5;stroke-dasharray:3.0,5.0;" x1="394" x2="394" y1="10" y2="123.9688"/><line style="stroke:#AAAAAA;stroke-width:0.5;stroke-dasharray:3.0,5.0;" x1="444" x2="444" y1="10" y2="123.9688"/><line style="stroke:#AAAAAA;stroke-width:0.5;stroke-dasharray:3.0,5.0;" x1="494" x2="494" y1="10" y2="123.9688"/><line style="stroke:#AAAAAA;stroke-width:0.5;stroke-dasharray:3.0,5.0;" x1="544" x2="544" y1="10" y2="123.9688"/><line style="stroke:#AAAAAA;stroke-width:0.5;stroke-dasharray:3.0,5.0;" x1="594" x2="594" y1="10" y2="123.9688"/><line style="stroke:#AAAAAA;stroke-width:0.5;stroke-dasharray:3.0,5.0;" x1="644" x2="644" y1="10" y2="123.9688"/><line style="stroke:#AAAAAA;stroke-width:0.5;stroke-dasharray:3.0,5.0;" x1="694" x2="694" y1="10" y2="123.9688"/><line style="stroke:#AAAAAA;stroke-width:0.5;stroke-dasharray:3.0,5.0;" x1="744" x2="744" y1="10" y2="123.9688"/><line style="stroke:#AAAAAA;stroke-width:0.5;stroke-dasharray:3.0,5.0;" x1="794" x2="794" y1="10" y2="123.9688"/><line style="stroke:#AAAAAA;stroke-width:0.5;stroke-dasharray:3.0,5.0;" x1="844" x2="844" y1="10" y2="123.9688"/><line style="stroke:#000000;stroke-width:1.7;" x1="10" x2="849" y1="10" y2="10"/><text fill="#000000" font-family="sans-serif" font-size="12" lengthAdjust="spacingAndGlyphs" textLength="7" x="15" y="29.1543">A</text><line style="stroke:#038048;stroke-width:1.5;" x1="44" x2="44" y1="32" y2="32"/><line style="stroke:#038048;stroke-width:1.5;" x1="44" x2="93.5" y1="32" y2="32"/><line style="stroke:#038048;stroke-width:1.5;" x1="93.5" x2="93.5" y1="18" y2="32"/><line style="stroke:#038048;stroke-width:1.5;" x1="93.5" x2="99" y1="18" y2="18"/><line style="stroke:#038048;stroke-width:1.5;" x1="99" x2="99" y1="18" y2="32"/><line style="stroke:#038048;stroke-width:1.5;" x1="99" x2="143.5" y1="32" y2="32"/><line style="stroke:#038048;stroke-width:1.5;" x1="143.5" x2="143.5" y1="18" y2="32"/><line style="stroke:#038048;stroke-width:1.5;" x1="143.5" x2="149" y1="18" y2="18"/><line style="stroke:#038048;stroke-width:1.5;" x1="149" x2="149" y1="18" y2="32"/><line style="stroke:#038048;stroke-width:1.5;" x1="149" x2="193.5" y1="32" y2="32"/><line style="stroke:#038048;stroke-width:1.5;" x1="193.5" x2="193.5" y1="18" y2="32"/><line style="stroke:#038048;stroke-width:1.5;" x1="193.5" x2="255" y1="18" y2="18"/><line style="stroke:#038048;stroke-width:1.5;" x1="255" x2="255" y1="18" y2="32"/><line style="stroke:#038048;stroke-width:1.5;" x1="255" x2="293.5" y1="32" y2="32"/><line style="stroke:#038048;stroke-width:1.5;" x1="293.5" x2="293.5" y1="18" y2="32"/><line style="stroke:#038048;stroke-width:1.5;" x1="293.5" x2="299" y1="18" y2="18"/><line style="stroke:#038048;stroke-width:1.5;" x1="299" x2="299" y1="18" y2="32"/><line style="stroke:#038048;stroke-width:1.5;" x1="299" x2="343.5" y1="32" y2="32"/><line style="stroke:#038048;stroke-width:1.5;" x1="343.5" x2="343.5" y1="18" y2="32"/><line style="stroke:#038048;stroke-width:1.5;" x1="343.5" x2="460" y1="18" y2="18"/><line style="stroke:#038048;stroke-width:1.5;" x1="460" x2="460" y1="18" y2="32"/><line style="stroke:#038048;stroke-width:1.5;" x1="460" x2="493.5" y1="32" y2="32"/><line style="stroke:#038048;stroke-width:1.5;" x1="493.5" x2="493.5" y1="18" y2="32"/><line style="stroke:#038048;stroke-width:1.5;" x1="493.5" x2="554.5" y1="18" y2="18"/><line style="stroke:#038048;stroke-width:1.5;" x1="554.5" x2="554.5" y1="18" y2="32"/><line style="stroke:#038048;stroke-width:1.5;" x1="554.5" x2="593.5" y1="32" y2="32"/><line style="stroke:#038048;stroke-width:1.5;" x1="593.5" x2="593.5" y1="18" y2="32"/><line style="stroke:#038048;stroke-width:1.5;" x1="593.5" x2="599.5" y1="18" y2="18"/><line style="stroke:#038048;stroke-width:1.5;" x1="599.5" x2="599.5" y1="18" y2="32"/><line style="stroke:#038048;stroke-width:1.5;" x1="599.5" x2="643.5" y1="32" y2="32"/><line style="stroke:#038048;stroke-width:1.5;" x1="643.5" x2="643.5" y1="18" y2="32"/><line style="stroke:#038048;stroke-width:1.5;" x1="643.5" x2="760" y1="18" y2="18"/><line style="stroke:#038048;stroke-width:1.5;" x1="760" x2="760" y1="18" y2="32"/><line style="stroke:#038048;stroke-width:1.5;" x1="760" x2="793.5" y1="32" y2="32"/><line style="stroke:#038048;stroke-width:1.5;" x1="793.5" x2="793.5" y1="18" y2="32"/><line style="stroke:#038048;stroke-width:1.5;" x1="793.5" x2="794" y1="18" y2="18"/><line style="stroke:#038048;stroke-width:1.5;" x1="794" x2="794" y1="18" y2="32"/><line style="stroke:#038048;stroke-width:1.5;" x1="794" x2="844" y1="32" y2="32"/><line style="stroke:#000000;stroke-width:1.7;" x1="10" x2="849" y1="40" y2="40"/><text fill="#000000" font-family="sans-serif" font-size="12" lengthAdjust="spacingAndGlyphs" textLength="24" x="15" y="59.1543">IDLE</text><line style="stroke:#038048;stroke-width:1.5;" x1="44" x2="44" y1="62" y2="62"/><line style="stroke:#038048;stroke-width:1.5;" x1="44" x2="44" y1="48" y2="62"/><line style="stroke:#038048;stroke-width:1.5;" x1="44" x2="93.5" y1="48" y2="48"/><line style="stroke:#038048;stroke-width:1.5;" x1="93.5" x2="93.5" y1="48" y2="62"/><line style="stroke:#038048;stroke-width:1.5;" x1="93.5" x2="99" y1="62" y2="62"/><line style="stroke:#038048;stroke-width:1.5;" x1="99" x2="99" y1="48" y2="62"/><line style="stroke:#038048;stroke-width:1.5;" x1="99" x2="143.5" y1="48" y2="48"/><line style="stroke:#038048;stroke-width:1.5;" x1="143.5" x2="143.5" y1="48" y2="62"/><line style="stroke:#038048;stroke-width:1.5;" x1="143.5" x2="149" y1="62" y2="62"/><line style="stroke:#038048;stroke-width:1.5;" x1="149" x2="149" y1="48" y2="62"/><line style="stroke:#038048;stroke-width:1.5;" x1="149" x2="193.5" y1="48" y2="48"/><line style="stroke:#038048;stroke-width:1.5;" x1="193.5" x2="193.5" y1="48" y2="62"/><line style="stroke:#038048;stroke-width:1.5;" x1="193.5" x2="255" y1="62" y2="62"/><line style="stroke:#038048;stroke-width:1.5;" x1="255" x2="255" y1="48" y2="62"/><line style="stroke:#038048;stroke-width:1.5;" x1="255" x2="293.5" y1="48" y2="48"/><line style="stroke:#038048;stroke-width:1.5;" x1="293.5" x2="293.5" y1="48" y2="62"/><line style="stroke:#038048;stroke-width:1.5;" x1="293.5" x2="299" y1="62" y2="62"/><line style="stroke:#038048;stroke-width:1.5;" x1="299" x2="299" y1="48" y2="62"/><line style="stroke:#038048;stroke-width:1.5;" x1="299" x2="343.5" y1="48" y2="48"/><line style="stroke:#038048;stroke-width:1.5;" x1="343.5" x2="343.5" y1="48" y2="62"/><line style="stroke:#038048;stroke-width:1.5;" x1="343.5" x2="460" y1="62" y2="62"/><line style="stroke:#038048;stroke-width:1.5;" x1="460" x2="460" y1="48" y2="62"/><line style="stroke:#038048;stroke-width:1.5;" x1="460" x2="493.5" y1="48" y2="48"/><line style="stroke:#038048;stroke-width:1.5;" x1="493.5" x2="493.5" y1="48" y2="62"/><line style="stroke:#038048;stroke-width:1.5;" x1="493.5" x2="554.5" y1="62" y2="62"/><line style="stroke:#038048;stroke-width:1.5;" x1="554.5" x2="554.5" y1="48" y2="62"/><line style="stroke:#038048;stroke-width:1.5;" x1="554.5" x2="593.5" y1="48" y2="48"/><line style="stroke:#038048;stroke-width:1.5;" x1="593.5" x2="593.5" y1="48" y2="62"/><line style="stroke:#038048;stroke-width:1.5;" x1="593.5" x2="599.5" y1="62" y2="62"/><line style="stroke:#038048;stroke-width:1.5;" x1="599.5" x2="599.5" y1="48" y2="62"/><line style="stroke:#038048;stroke-width:1.5;" x1="599.5" x2="643.5" y1="48" y2="48"/><line style="stroke:#038048;stroke-width:1.5;" x1="643.5" x2="643.5" y1="48" y2="62"/><line style="stroke:#038048;stroke-width:1.5;" x1="643.5" x2="760" y1="62" y2="62"/><line style="stroke:#038048;stroke-width:1.5;" x1="760" x2="760" y1="48" y2="62"/><line style="stroke:#038048;stroke-width:1.5;" x1="760" x2="793.5" y1="48" y2="48"/><line style="stroke:#038048;stroke-width:1.5;" x1="793.5" x2="793.5" y1="48" y2="62"/><line style="stroke:#038048;stroke-width:1.5;" x1="793.5" x2="794" y1="62" y2="62"/><line style="stroke:#038048;stroke-width:1.5;" x1="794" x2="844" y1="62" y2="62"/><line style="stroke:#000000;stroke-width:1.7;" x1="10" x2="849" y1="70" y2="70"/><text fill="#000000" font-family="sans-serif" font-size="12" lengthAdjust="spacingAndGlyphs" textLength="97" x="15" y="81.1387">RuningTaskName</text><line style="stroke:#000000;stroke-width:1.0;" x1="10" x2="113" y1="84.9688" y2="84.9688"/><line style="stroke:#000000;stroke-width:1.0;" x1="113" x2="123" y1="84.9688" y2="70"/><polygon fill="#D7E0F2" points="56,89.9688,81.5,89.9688,93.5,101.9688,81.5,113.9688,56,113.9688,44,101.9688" style="stroke:#038048;stroke-width:1.5;"/><polygon fill="#D7E0F2" points="105.5,89.9688,87,89.9688,99,101.9688,87,113.9688,105.5,113.9688,93.5,101.9688" style="stroke:#038048;stroke-width:1.5;"/><polygon fill="#D7E0F2" points="111,89.9688,131.5,89.9688,143.5,101.9688,131.5,113.9688,111,113.9688,99,101.9688" style="stroke:#038048;stroke-width:1.5;"/><polygon fill="#D7E0F2" points="155.5,89.9688,137,89.9688,149,101.9688,137,113.9688,155.5,113.9688,143.5,101.9688" style="stroke:#038048;stroke-width:1.5;"/><polygon fill="#D7E0F2" points="161,89.9688,181.5,89.9688,193.5,101.9688,181.5,113.9688,161,113.9688,149,101.9688" style="stroke:#038048;stroke-width:1.5;"/><polygon fill="#D7E0F2" points="205.5,89.9688,243,89.9688,255,101.9688,243,113.9688,205.5,113.9688,193.5,101.9688" style="stroke:#038048;stroke-width:1.5;"/><polygon fill="#D7E0F2" points="267,89.9688,281.5,89.9688,293.5,101.9688,281.5,113.9688,267,113.9688,255,101.9688" style="stroke:#038048;stroke-width:1.5;"/><polygon fill="#D7E0F2" points="305.5,89.9688,287,89.9688,299,101.9688,287,113.9688,305.5,113.9688,293.5,101.9688" style="stroke:#038048;stroke-width:1.5;"/><polygon fill="#D7E0F2" points="311,89.9688,331.5,89.9688,343.5,101.9688,331.5,113.9688,311,113.9688,299,101.9688" style="stroke:#038048;stroke-width:1.5;"/><polygon fill="#D7E0F2" points="355.5,89.9688,448,89.9688,460,101.9688,448,113.9688,355.5,113.9688,343.5,101.9688" style="stroke:#038048;stroke-width:1.5;"/><polygon fill="#D7E0F2" points="472,89.9688,481.5,89.9688,493.5,101.9688,481.5,113.9688,472,113.9688,460,101.9688" style="stroke:#038048;stroke-width:1.5;"/><polygon fill="#D7E0F2" points="505.5,89.9688,542.5,89.9688,554.5,101.9688,542.5,113.9688,505.5,113.9688,493.5,101.9688" style="stroke:#038048;stroke-width:1.5;"/><polygon fill="#D7E0F2" points="566.5,89.9688,581.5,89.9688,593.5,101.9688,581.5,113.9688,566.5,113.9688,554.5,101.9688" style="stroke:#038048;stroke-width:1.5;"/><polygon fill="#D7E0F2" points="605.5,89.9688,587.5,89.9688,599.5,101.9688,587.5,113.9688,605.5,113.9688,593.5,101.9688" style="stroke:#038048;stroke-width:1.5;"/><polygon fill="#D7E0F2" points="611.5,89.9688,631.5,89.9688,643.5,101.9688,631.5,113.9688,611.5,113.9688,599.5,101.9688" style="stroke:#038048;stroke-width:1.5;"/><polygon fill="#D7E0F2" points="655.5,89.9688,748,89.9688,760,101.9688,748,113.9688,655.5,113.9688,643.5,101.9688" style="stroke:#038048;stroke-width:1.5;"/><polygon fill="#D7E0F2" points="772,89.9688,781.5,89.9688,793.5,101.9688,781.5,113.9688,772,113.9688,760,101.9688" style="stroke:#038048;stroke-width:1.5;"/><polygon fill="#D7E0F2" points="805.5,89.9688,782,89.9688,794,101.9688,782,113.9688,805.5,113.9688,793.5,101.9688" style="stroke:#038048;stroke-width:1.5;"/><text fill="#000000" font-family="sans-serif" font-size="12" lengthAdjust="spacingAndGlyphs" textLength="7" x="65.25" y="106.123">A</text><text fill="#000000" font-family="sans-serif" font-size="12" lengthAdjust="spacingAndGlyphs" textLength="7" x="92.75" y="106.123">A</text><text fill="#000000" font-family="sans-serif" font-size="12" lengthAdjust="spacingAndGlyphs" textLength="24" x="109.25" y="106.123">IDLE</text><text fill="#000000" font-family="sans-serif" font-size="12" lengthAdjust="spacingAndGlyphs" textLength="7" x="142.75" y="106.123">A</text><text fill="#000000" font-family="sans-serif" font-size="12" lengthAdjust="spacingAndGlyphs" textLength="24" x="159.25" y="106.123">IDLE</text><text fill="#000000" font-family="sans-serif" font-size="12" lengthAdjust="spacingAndGlyphs" textLength="7" x="220.75" y="106.123">A</text><text fill="#000000" font-family="sans-serif" font-size="12" lengthAdjust="spacingAndGlyphs" textLength="24" x="262.25" y="106.123">IDLE</text><text fill="#000000" font-family="sans-serif" font-size="12" lengthAdjust="spacingAndGlyphs" textLength="7" x="292.75" y="106.123">A</text><text fill="#000000" font-family="sans-serif" font-size="12" lengthAdjust="spacingAndGlyphs" textLength="24" x="309.25" y="106.123">IDLE</text><text fill="#000000" font-family="sans-serif" font-size="12" lengthAdjust="spacingAndGlyphs" textLength="7" x="398.25" y="106.123">A</text><text fill="#000000" font-family="sans-serif" font-size="12" lengthAdjust="spacingAndGlyphs" textLength="24" x="464.75" y="106.123">IDLE</text><text fill="#000000" font-family="sans-serif" font-size="12" lengthAdjust="spacingAndGlyphs" textLength="7" x="520.5" y="106.123">A</text><text fill="#000000" font-family="sans-serif" font-size="12" lengthAdjust="spacingAndGlyphs" textLength="24" x="562" y="106.123">IDLE</text><text fill="#000000" font-family="sans-serif" font-size="12" lengthAdjust="spacingAndGlyphs" textLength="7" x="593" y="106.123">A</text><text fill="#000000" font-family="sans-serif" font-size="12" lengthAdjust="spacingAndGlyphs" textLength="24" x="609.5" y="106.123">IDLE</text><text fill="#000000" font-family="sans-serif" font-size="12" lengthAdjust="spacingAndGlyphs" textLength="7" x="698.25" y="106.123">A</text><text fill="#000000" font-family="sans-serif" font-size="12" lengthAdjust="spacingAndGlyphs" textLength="24" x="764.75" y="106.123">IDLE</text><text fill="#000000" font-family="sans-serif" font-size="12" lengthAdjust="spacingAndGlyphs" textLength="7" x="790.25" y="106.123">A</text><line style="stroke:#000000;stroke-width:2.0;" x1="44" x2="44" y1="123.9688" y2="128.9688"/><line style="stroke:#000000;stroke-width:2.0;" x1="94" x2="94" y1="123.9688" y2="128.9688"/><line style="stroke:#000000;stroke-width:2.0;" x1="144" x2="144" y1="123.9688" y2="128.9688"/><line style="stroke:#000000;stroke-width:2.0;" x1="194" x2="194" y1="123.9688" y2="128.9688"/><line style="stroke:#000000;stroke-width:2.0;" x1="244" x2="244" y1="123.9688" y2="128.9688"/><line style="stroke:#000000;stroke-width:2.0;" x1="294" x2="294" y1="123.9688" y2="128.9688"/><line style="stroke:#000000;stroke-width:2.0;" x1="344" x2="344" y1="123.9688" y2="128.9688"/><line style="stroke:#000000;stroke-width:2.0;" x1="394" x2="394" y1="123.9688" y2="128.9688"/><line style="stroke:#000000;stroke-width:2.0;" x1="444" x2="444" y1="123.9688" y2="128.9688"/><line style="stroke:#000000;stroke-width:2.0;" x1="494" x2="494" y1="123.9688" y2="128.9688"/><line style="stroke:#000000;stroke-width:2.0;" x1="544" x2="544" y1="123.9688" y2="128.9688"/><line style="stroke:#000000;stroke-width:2.0;" x1="594" x2="594" y1="123.9688" y2="128.9688"/><line style="stroke:#000000;stroke-width:2.0;" x1="644" x2="644" y1="123.9688" y2="128.9688"/><line style="stroke:#000000;stroke-width:2.0;" x1="694" x2="694" y1="123.9688" y2="128.9688"/><line style="stroke:#000000;stroke-width:2.0;" x1="744" x2="744" y1="123.9688" y2="128.9688"/><line style="stroke:#000000;stroke-width:2.0;" x1="794" x2="794" y1="123.9688" y2="128.9688"/><line style="stroke:#000000;stroke-width:2.0;" x1="844" x2="844" y1="123.9688" y2="128.9688"/><line style="stroke:#000000;stroke-width:2.0;" x1="44" x2="844" y1="123.9688" y2="123.9688"/><text fill="#000000" font-family="sans-serif" font-size="12" lengthAdjust="spacingAndGlyphs" textLength="7" x="40.5" y="141.1074">0</text><text fill="#000000" font-family="sans-serif" font-size="12" lengthAdjust="spacingAndGlyphs" textLength="21" x="83.5" y="141.1074">100</text><text fill="#000000" font-family="sans-serif" font-size="12" lengthAdjust="spacingAndGlyphs" textLength="21" x="133.5" y="141.1074">200</text><text fill="#000000" font-family="sans-serif" font-size="12" lengthAdjust="spacingAndGlyphs" textLength="21" x="183.5" y="141.1074">300</text><text fill="#000000" font-family="sans-serif" font-size="12" lengthAdjust="spacingAndGlyphs" textLength="21" x="233.5" y="141.1074">400</text><text fill="#000000" font-family="sans-serif" font-size="12" lengthAdjust="spacingAndGlyphs" textLength="21" x="283.5" y="141.1074">500</text><text fill="#000000" font-family="sans-serif" font-size="12" lengthAdjust="spacingAndGlyphs" textLength="21" x="333.5" y="141.1074">600</text><text fill="#000000" font-family="sans-serif" font-size="12" lengthAdjust="spacingAndGlyphs" textLength="21" x="383.5" y="141.1074">700</text><text fill="#000000" font-family="sans-serif" font-size="12" lengthAdjust="spacingAndGlyphs" textLength="21" x="433.5" y="141.1074">800</text><text fill="#000000" font-family="sans-serif" font-size="12" lengthAdjust="spacingAndGlyphs" textLength="21" x="483.5" y="141.1074">900</text><text fill="#000000" font-family="sans-serif" font-size="12" lengthAdjust="spacingAndGlyphs" textLength="28" x="530" y="141.1074">1000</text><text fill="#000000" font-family="sans-serif" font-size="12" lengthAdjust="spacingAndGlyphs" textLength="28" x="580" y="141.1074">1100</text><text fill="#000000" font-family="sans-serif" font-size="12" lengthAdjust="spacingAndGlyphs" textLength="28" x="630" y="141.1074">1200</text><text fill="#000000" font-family="sans-serif" font-size="12" lengthAdjust="spacingAndGlyphs" textLength="28" x="680" y="141.1074">1300</text><text fill="#000000" font-family="sans-serif" font-size="12" lengthAdjust="spacingAndGlyphs" textLength="28" x="730" y="141.1074">1400</text><text fill="#000000" font-family="sans-serif" font-size="12" lengthAdjust="spacingAndGlyphs" textLength="28" x="780" y="141.1074">1500</text><text fill="#000000" font-family="sans-serif" font-size="12" lengthAdjust="spacingAndGlyphs" textLength="28" x="830" y="141.1074">1600</text><text fill="#000000" font-family="sans-serif" font-size="14" lengthAdjust="spacingAndGlyphs" textLength="343" x="258" y="150.9326">sample_xTaskDelayUntil.c TaskSwitch Timing Diagram</text><!--MD5=[9980656641263c1d1c1f1b070113a63f]
@startuml
binary "A" as A
binary "IDLE" as IDLE
concise "RuningTaskName" as RuningTaskName

caption sample_xTaskDelayUntil.c TaskSwitch Timing Diagram

scale 100 as 50 pixels

@0
A is high
RuningTaskName is A
A is low
IDLE is high
RuningTaskName is IDLE

@99
IDLE is low
A is high
RuningTaskName is A

@110
A is low
IDLE is high
RuningTaskName is IDLE

@199
IDLE is low
A is high
RuningTaskName is A

@210
A is low
IDLE is high
RuningTaskName is IDLE

@299
IDLE is low
A is high
RuningTaskName is A

@422
A is low
IDLE is high
RuningTaskName is IDLE

@499
IDLE is low
A is high
RuningTaskName is A

@510
A is low
IDLE is high
RuningTaskName is IDLE

@599
IDLE is low
A is high
RuningTaskName is A

@832
A is low
IDLE is high
RuningTaskName is IDLE

@899
IDLE is low
A is high
RuningTaskName is A

@1021
A is low
IDLE is high
RuningTaskName is IDLE

@1099
IDLE is low
A is high
RuningTaskName is A

@1111
A is low
IDLE is high
RuningTaskName is IDLE

@1199
IDLE is low
A is high
RuningTaskName is A

@1432
A is low
IDLE is high
RuningTaskName is IDLE

@1499
IDLE is low
A is high
RuningTaskName is A

@1500
IDLE is {hidden}
A is {hidden}
RuningTaskName is {hidden}

@enduml

PlantUML version 1.2020.23(Sun Dec 13 19:14:58 GMT 2020)
(GPL source distribution)
Java Runtime: OpenJDK Runtime Environment
JVM: OpenJDK 64-Bit Server VM
Default Encoding: UTF-8
Language: en
Country: US
--></g></svg>