<?xml version="1.0" encoding="UTF-8" standalone="no"?><svg xmlns="http://www.w3.org/2000/svg" xmlns:xlink="http://www.w3.org/1999/xlink" contentStyleType="text/css" height="158px" preserveAspectRatio="none" style="width:875px;height:158px;background:#FFFFFF;" version="1.1" viewBox="0 0 875 158" width="875px" zoomAndPan="magnify"><defs/><g><line style="stroke:#333333;stroke-width:0.5;" x1="10" x2="10" y1="10" y2="127.6094"/><line style="stroke:#333333;stroke-width:0.5;" x1="856" x2="856" y1="10" y2="127.6094"/><line style="stroke:#333333;stroke-width:0.5;stroke-dasharray:3.0,5.0;" x1="51" x2="51" y1="10" y2="127.6094"/><line style="stroke:#333333;stroke-width:0.5;stroke-dasharray:3.0,5.0;" x1="101" x2="101" y1="10" y2="127.6094"/><line style="stroke:#333333;stroke-width:0.5;stroke-dasharray:3.0,5.0;" x1="151" x2="151" y1="10" y2="127.6094"/><line style="stroke:#333333;stroke-width:0.5;stroke-dasharray:3.0,5.0;" x1="201" x2="201" y1="10" y2="127.6094"/><line style="stroke:#333333;stroke-width:0.5;stroke-dasharray:3.0,5.0;" x1="251" x2="251" y1="10" y2="127.6094"/><line style="stroke:#333333;stroke-width:0.5;stroke-dasharray:3.0,5.0;" x1="301" x2="301" y1="10" y2="127.6094"/><line style="stroke:#333333;stroke-width:0.5;stroke-dasharray:3.0,5.0;" x1="351" x2="351" y1="10" y2="127.6094"/><line style="stroke:#333333;stroke-width:0.5;stroke-dasharray:3.0,5.0;" x1="401" x2="401" y1="10" y2="127.6094"/><line style="stroke:#333333;stroke-width:0.5;stroke-dasharray:3.0,5.0;" x1="451" x2="451" y1="10" y2="127.6094"/><line style="stroke:#333333;stroke-width:0.5;stroke-dasharray:3.0,5.0;" x1="501" x2="501" y1="10" y2="127.6094"/><line style="stroke:#333333;stroke-width:0.5;stroke-dasharray:3.0,5.0;" x1="551" x2="551" y1="10" y2="127.6094"/><line style="stroke:#333333;stroke-width:0.5;stroke-dasharray:3.0,5.0;" x1="601" x2="601" y1="10" y2="127.6094"/><line style="stroke:#333333;stroke-width:0.5;stroke-dasharray:3.0,5.0;" x1="651" x2="651" y1="10" y2="127.6094"/><line style="stroke:#333333;stroke-width:0.5;stroke-dasharray:3.0,5.0;" x1="701" x2="701" y1="10" y2="127.6094"/><line style="stroke:#333333;stroke-width:0.5;stroke-dasharray:3.0,5.0;" x1="751" x2="751" y1="10" y2="127.6094"/><line style="stroke:#333333;stroke-width:0.5;stroke-dasharray:3.0,5.0;" x1="801" x2="801" y1="10" y2="127.6094"/><line style="stroke:#333333;stroke-width:0.5;stroke-dasharray:3.0,5.0;" x1="851" x2="851" y1="10" y2="127.6094"/><line style="stroke:#333333;stroke-width:0.5;" x1="10" x2="856" y1="10" y2="10"/><text fill="#333333" font-family="sans-serif" font-size="14" font-weight="bold" lengthAdjust="spacing" textLength="9" x="15" y="30.7285">A</text><line style="stroke:#006400;stroke-width:2.0;" x1="51" x2="51" y1="32" y2="32"/><line style="stroke:#006400;stroke-width:2.0;" x1="51" x2="100.5" y1="32" y2="32"/><line style="stroke:#006400;stroke-width:2.0;" x1="100.5" x2="100.5" y1="18" y2="32"/><line style="stroke:#006400;stroke-width:2.0;" x1="100.5" x2="106" y1="18" y2="18"/><line style="stroke:#006400;stroke-width:2.0;" x1="106" x2="106" y1="18" y2="32"/><line style="stroke:#006400;stroke-width:2.0;" x1="106" x2="150.5" y1="32" y2="32"/><line style="stroke:#006400;stroke-width:2.0;" x1="150.5" x2="150.5" y1="18" y2="32"/><line style="stroke:#006400;stroke-width:2.0;" x1="150.5" x2="156" y1="18" y2="18"/><line style="stroke:#006400;stroke-width:2.0;" x1="156" x2="156" y1="18" y2="32"/><line style="stroke:#006400;stroke-width:2.0;" x1="156" x2="200.5" y1="32" y2="32"/><line style="stroke:#006400;stroke-width:2.0;" x1="200.5" x2="200.5" y1="18" y2="32"/><line style="stroke:#006400;stroke-width:2.0;" x1="200.5" x2="262" y1="18" y2="18"/><line style="stroke:#006400;stroke-width:2.0;" x1="262" x2="262" y1="18" y2="32"/><line style="stroke:#006400;stroke-width:2.0;" x1="262" x2="300.5" y1="32" y2="32"/><line style="stroke:#006400;stroke-width:2.0;" x1="300.5" x2="300.5" y1="18" y2="32"/><line style="stroke:#006400;stroke-width:2.0;" x1="300.5" x2="306" y1="18" y2="18"/><line style="stroke:#006400;stroke-width:2.0;" x1="306" x2="306" y1="18" y2="32"/><line style="stroke:#006400;stroke-width:2.0;" x1="306" x2="350.5" y1="32" y2="32"/><line style="stroke:#006400;stroke-width:2.0;" x1="350.5" x2="350.5" y1="18" y2="32"/><line style="stroke:#006400;stroke-width:2.0;" x1="350.5" x2="467" y1="18" y2="18"/><line style="stroke:#006400;stroke-width:2.0;" x1="467" x2="467" y1="18" y2="32"/><line style="stroke:#006400;stroke-width:2.0;" x1="467" x2="500.5" y1="32" y2="32"/><line style="stroke:#006400;stroke-width:2.0;" x1="500.5" x2="500.5" y1="18" y2="32"/><line style="stroke:#006400;stroke-width:2.0;" x1="500.5" x2="561.5" y1="18" y2="18"/><line style="stroke:#006400;stroke-width:2.0;" x1="561.5" x2="561.5" y1="18" y2="32"/><line style="stroke:#006400;stroke-width:2.0;" x1="561.5" x2="600.5" y1="32" y2="32"/><line style="stroke:#006400;stroke-width:2.0;" x1="600.5" x2="600.5" y1="18" y2="32"/><line style="stroke:#006400;stroke-width:2.0;" x1="600.5" x2="606" y1="18" y2="18"/><line style="stroke:#006400;stroke-width:2.0;" x1="606" x2="606" y1="18" y2="32"/><line style="stroke:#006400;stroke-width:2.0;" x1="606" x2="650.5" y1="32" y2="32"/><line style="stroke:#006400;stroke-width:2.0;" x1="650.5" x2="650.5" y1="18" y2="32"/><line style="stroke:#006400;stroke-width:2.0;" x1="650.5" x2="767" y1="18" y2="18"/><line style="stroke:#006400;stroke-width:2.0;" x1="767" x2="767" y1="18" y2="32"/><line style="stroke:#006400;stroke-width:2.0;" x1="767" x2="800.5" y1="32" y2="32"/><line style="stroke:#006400;stroke-width:2.0;" x1="800.5" x2="800.5" y1="18" y2="32"/><line style="stroke:#006400;stroke-width:2.0;" x1="800.5" x2="801" y1="18" y2="18"/><line style="stroke:#006400;stroke-width:2.0;" x1="801" x2="801" y1="18" y2="32"/><line style="stroke:#006400;stroke-width:2.0;" x1="801" x2="851" y1="32" y2="32"/><line style="stroke:#333333;stroke-width:0.5;" x1="10" x2="856" y1="40" y2="40"/><text fill="#333333" font-family="sans-serif" font-size="14" font-weight="bold" lengthAdjust="spacing" textLength="31" x="15" y="60.7285">IDLE</text><line style="stroke:#006400;stroke-width:2.0;" x1="51" x2="51" y1="62" y2="62"/><line style="stroke:#006400;stroke-width:2.0;" x1="51" x2="51" y1="48" y2="62"/><line style="stroke:#006400;stroke-width:2.0;" x1="51" x2="100.5" y1="48" y2="48"/><line style="stroke:#006400;stroke-width:2.0;" x1="100.5" x2="100.5" y1="48" y2="62"/><line style="stroke:#006400;stroke-width:2.0;" x1="100.5" x2="106" y1="62" y2="62"/><line style="stroke:#006400;stroke-width:2.0;" x1="106" x2="106" y1="48" y2="62"/><line style="stroke:#006400;stroke-width:2.0;" x1="106" x2="150.5" y1="48" y2="48"/><line style="stroke:#006400;stroke-width:2.0;" x1="150.5" x2="150.5" y1="48" y2="62"/><line style="stroke:#006400;stroke-width:2.0;" x1="150.5" x2="156" y1="62" y2="62"/><line style="stroke:#006400;stroke-width:2.0;" x1="156" x2="156" y1="48" y2="62"/><line style="stroke:#006400;stroke-width:2.0;" x1="156" x2="200.5" y1="48" y2="48"/><line style="stroke:#006400;stroke-width:2.0;" x1="200.5" x2="200.5" y1="48" y2="62"/><line style="stroke:#006400;stroke-width:2.0;" x1="200.5" x2="262" y1="62" y2="62"/><line style="stroke:#006400;stroke-width:2.0;" x1="262" x2="262" y1="48" y2="62"/><line style="stroke:#006400;stroke-width:2.0;" x1="262" x2="300.5" y1="48" y2="48"/><line style="stroke:#006400;stroke-width:2.0;" x1="300.5" x2="300.5" y1="48" y2="62"/><line style="stroke:#006400;stroke-width:2.0;" x1="300.5" x2="306" y1="62" y2="62"/><line style="stroke:#006400;stroke-width:2.0;" x1="306" x2="306" y1="48" y2="62"/><line style="stroke:#006400;stroke-width:2.0;" x1="306" x2="350.5" y1="48" y2="48"/><line style="stroke:#006400;stroke-width:2.0;" x1="350.5" x2="350.5" y1="48" y2="62"/><line style="stroke:#006400;stroke-width:2.0;" x1="350.5" x2="467" y1="62" y2="62"/><line style="stroke:#006400;stroke-width:2.0;" x1="467" x2="467" y1="48" y2="62"/><line style="stroke:#006400;stroke-width:2.0;" x1="467" x2="500.5" y1="48" y2="48"/><line style="stroke:#006400;stroke-width:2.0;" x1="500.5" x2="500.5" y1="48" y2="62"/><line style="stroke:#006400;stroke-width:2.0;" x1="500.5" x2="561.5" y1="62" y2="62"/><line style="stroke:#006400;stroke-width:2.0;" x1="561.5" x2="561.5" y1="48" y2="62"/><line style="stroke:#006400;stroke-width:2.0;" x1="561.5" x2="600.5" y1="48" y2="48"/><line style="stroke:#006400;stroke-width:2.0;" x1="600.5" x2="600.5" y1="48" y2="62"/><line style="stroke:#006400;stroke-width:2.0;" x1="600.5" x2="606" y1="62" y2="62"/><line style="stroke:#006400;stroke-width:2.0;" x1="606" x2="606" y1="48" y2="62"/><line style="stroke:#006400;stroke-width:2.0;" x1="606" x2="650.5" y1="48" y2="48"/><line style="stroke:#006400;stroke-width:2.0;" x1="650.5" x2="650.5" y1="48" y2="62"/><line style="stroke:#006400;stroke-width:2.0;" x1="650.5" x2="767" y1="62" y2="62"/><line style="stroke:#006400;stroke-width:2.0;" x1="767" x2="767" y1="48" y2="62"/><line style="stroke:#006400;stroke-width:2.0;" x1="767" x2="800.5" y1="48" y2="48"/><line style="stroke:#006400;stroke-width:2.0;" x1="800.5" x2="800.5" y1="48" y2="62"/><line style="stroke:#006400;stroke-width:2.0;" x1="800.5" x2="801" y1="62" y2="62"/><line style="stroke:#006400;stroke-width:2.0;" x1="801" x2="851" y1="62" y2="62"/><line style="stroke:#333333;stroke-width:0.5;" x1="10" x2="856" y1="70" y2="70"/><text fill="#333333" font-family="sans-serif" font-size="14" font-weight="bold" lengthAdjust="spacing" textLength="121" x="15" y="84.5332">RuningTaskName</text><line style="stroke:#333333;stroke-width:0.5;" x1="10" x2="137" y1="88.6094" y2="88.6094"/><line style="stroke:#333333;stroke-width:0.5;" x1="137" x2="147" y1="88.6094" y2="70"/><polygon fill="#E2E2F0" points="63,93.6094,88.5,93.6094,100.5,105.6094,88.5,117.6094,63,117.6094,51,105.6094" style="stroke:#006400;stroke-width:1.5;"/><polygon fill="#E2E2F0" points="112.5,93.6094,94,93.6094,106,105.6094,94,117.6094,112.5,117.6094,100.5,105.6094" style="stroke:#006400;stroke-width:1.5;"/><polygon fill="#E2E2F0" points="118,93.6094,138.5,93.6094,150.5,105.6094,138.5,117.6094,118,117.6094,106,105.6094" style="stroke:#006400;stroke-width:1.5;"/><polygon fill="#E2E2F0" points="162.5,93.6094,144,93.6094,156,105.6094,144,117.6094,162.5,117.6094,150.5,105.6094" style="stroke:#006400;stroke-width:1.5;"/><polygon fill="#E2E2F0" points="168,93.6094,188.5,93.6094,200.5,105.6094,188.5,117.6094,168,117.6094,156,105.6094" style="stroke:#006400;stroke-width:1.5;"/><polygon fill="#E2E2F0" points="212.5,93.6094,250,93.6094,262,105.6094,250,117.6094,212.5,117.6094,200.5,105.6094" style="stroke:#006400;stroke-width:1.5;"/><polygon fill="#E2E2F0" points="274,93.6094,288.5,93.6094,300.5,105.6094,288.5,117.6094,274,117.6094,262,105.6094" style="stroke:#006400;stroke-width:1.5;"/><polygon fill="#E2E2F0" points="312.5,93.6094,294,93.6094,306,105.6094,294,117.6094,312.5,117.6094,300.5,105.6094" style="stroke:#006400;stroke-width:1.5;"/><polygon fill="#E2E2F0" points="318,93.6094,338.5,93.6094,350.5,105.6094,338.5,117.6094,318,117.6094,306,105.6094" style="stroke:#006400;stroke-width:1.5;"/><polygon fill="#E2E2F0" points="362.5,93.6094,455,93.6094,467,105.6094,455,117.6094,362.5,117.6094,350.5,105.6094" style="stroke:#006400;stroke-width:1.5;"/><polygon fill="#E2E2F0" points="479,93.6094,488.5,93.6094,500.5,105.6094,488.5,117.6094,479,117.6094,467,105.6094" style="stroke:#006400;stroke-width:1.5;"/><polygon fill="#E2E2F0" points="512.5,93.6094,549.5,93.6094,561.5,105.6094,549.5,117.6094,512.5,117.6094,500.5,105.6094" style="stroke:#006400;stroke-width:1.5;"/><polygon fill="#E2E2F0" points="573.5,93.6094,588.5,93.6094,600.5,105.6094,588.5,117.6094,573.5,117.6094,561.5,105.6094" style="stroke:#006400;stroke-width:1.5;"/><polygon fill="#E2E2F0" points="612.5,93.6094,594,93.6094,606,105.6094,594,117.6094,612.5,117.6094,600.5,105.6094" style="stroke:#006400;stroke-width:1.5;"/><polygon fill="#E2E2F0" points="618,93.6094,638.5,93.6094,650.5,105.6094,638.5,117.6094,618,117.6094,606,105.6094" style="stroke:#006400;stroke-width:1.5;"/><polygon fill="#E2E2F0" points="662.5,93.6094,755,93.6094,767,105.6094,755,117.6094,662.5,117.6094,650.5,105.6094" style="stroke:#006400;stroke-width:1.5;"/><polygon fill="#E2E2F0" points="779,93.6094,788.5,93.6094,800.5,105.6094,788.5,117.6094,779,117.6094,767,105.6094" style="stroke:#006400;stroke-width:1.5;"/><polygon fill="#E2E2F0" points="812.5,93.6094,789,93.6094,801,105.6094,789,117.6094,812.5,117.6094,800.5,105.6094" style="stroke:#006400;stroke-width:1.5;"/><text fill="#333333" font-family="sans-serif" font-size="12" font-weight="bold" lengthAdjust="spacing" textLength="25" x="63.25" y="110.5195">IDLE</text><text fill="#333333" font-family="sans-serif" font-size="12" font-weight="bold" lengthAdjust="spacing" textLength="8" x="99.25" y="110.5195">A</text><text fill="#333333" font-family="sans-serif" font-size="12" font-weight="bold" lengthAdjust="spacing" textLength="25" x="115.75" y="110.5195">IDLE</text><text fill="#333333" font-family="sans-serif" font-size="12" font-weight="bold" lengthAdjust="spacing" textLength="8" x="149.25" y="110.5195">A</text><text fill="#333333" font-family="sans-serif" font-size="12" font-weight="bold" lengthAdjust="spacing" textLength="25" x="165.75" y="110.5195">IDLE</text><text fill="#333333" font-family="sans-serif" font-size="12" font-weight="bold" lengthAdjust="spacing" textLength="8" x="227.25" y="110.5195">A</text><text fill="#333333" font-family="sans-serif" font-size="12" font-weight="bold" lengthAdjust="spacing" textLength="25" x="268.75" y="110.5195">IDLE</text><text fill="#333333" font-family="sans-serif" font-size="12" font-weight="bold" lengthAdjust="spacing" textLength="8" x="299.25" y="110.5195">A</text><text fill="#333333" font-family="sans-serif" font-size="12" font-weight="bold" lengthAdjust="spacing" textLength="25" x="315.75" y="110.5195">IDLE</text><text fill="#333333" font-family="sans-serif" font-size="12" font-weight="bold" lengthAdjust="spacing" textLength="8" x="404.75" y="110.5195">A</text><text fill="#333333" font-family="sans-serif" font-size="12" font-weight="bold" lengthAdjust="spacing" textLength="25" x="471.25" y="110.5195">IDLE</text><text fill="#333333" font-family="sans-serif" font-size="12" font-weight="bold" lengthAdjust="spacing" textLength="8" x="527" y="110.5195">A</text><text fill="#333333" font-family="sans-serif" font-size="12" font-weight="bold" lengthAdjust="spacing" textLength="25" x="568.5" y="110.5195">IDLE</text><text fill="#333333" font-family="sans-serif" font-size="12" font-weight="bold" lengthAdjust="spacing" textLength="8" x="599.25" y="110.5195">A</text><text fill="#333333" font-family="sans-serif" font-size="12" font-weight="bold" lengthAdjust="spacing" textLength="25" x="615.75" y="110.5195">IDLE</text><text fill="#333333" font-family="sans-serif" font-size="12" font-weight="bold" lengthAdjust="spacing" textLength="8" x="704.75" y="110.5195">A</text><text fill="#333333" font-family="sans-serif" font-size="12" font-weight="bold" lengthAdjust="spacing" textLength="25" x="771.25" y="110.5195">IDLE</text><text fill="#333333" font-family="sans-serif" font-size="12" font-weight="bold" lengthAdjust="spacing" textLength="8" x="796.75" y="110.5195">A</text><line style="stroke:#333333;stroke-width:2.0;" x1="51" x2="51" y1="127.6094" y2="132.6094"/><line style="stroke:#333333;stroke-width:2.0;" x1="101" x2="101" y1="127.6094" y2="132.6094"/><line style="stroke:#333333;stroke-width:2.0;" x1="151" x2="151" y1="127.6094" y2="132.6094"/><line style="stroke:#333333;stroke-width:2.0;" x1="201" x2="201" y1="127.6094" y2="132.6094"/><line style="stroke:#333333;stroke-width:2.0;" x1="251" x2="251" y1="127.6094" y2="132.6094"/><line style="stroke:#333333;stroke-width:2.0;" x1="301" x2="301" y1="127.6094" y2="132.6094"/><line style="stroke:#333333;stroke-width:2.0;" x1="351" x2="351" y1="127.6094" y2="132.6094"/><line style="stroke:#333333;stroke-width:2.0;" x1="401" x2="401" y1="127.6094" y2="132.6094"/><line style="stroke:#333333;stroke-width:2.0;" x1="451" x2="451" y1="127.6094" y2="132.6094"/><line style="stroke:#333333;stroke-width:2.0;" x1="501" x2="501" y1="127.6094" y2="132.6094"/><line style="stroke:#333333;stroke-width:2.0;" x1="551" x2="551" y1="127.6094" y2="132.6094"/><line style="stroke:#333333;stroke-width:2.0;" x1="601" x2="601" y1="127.6094" y2="132.6094"/><line style="stroke:#333333;stroke-width:2.0;" x1="651" x2="651" y1="127.6094" y2="132.6094"/><line style="stroke:#333333;stroke-width:2.0;" x1="701" x2="701" y1="127.6094" y2="132.6094"/><line style="stroke:#333333;stroke-width:2.0;" x1="751" x2="751" y1="127.6094" y2="132.6094"/><line style="stroke:#333333;stroke-width:2.0;" x1="801" x2="801" y1="127.6094" y2="132.6094"/><line style="stroke:#333333;stroke-width:2.0;" x1="851" x2="851" y1="127.6094" y2="132.6094"/><line style="stroke:#333333;stroke-width:2.0;" x1="51" x2="851" y1="127.6094" y2="127.6094"/><text fill="#333333" font-family="sans-serif" font-size="11" lengthAdjust="spacing" textLength="6" x="48" y="145.0283">0</text><text fill="#333333" font-family="sans-serif" font-size="11" lengthAdjust="spacing" textLength="18" x="92" y="145.0283">100</text><text fill="#333333" font-family="sans-serif" font-size="11" lengthAdjust="spacing" textLength="18" x="142" y="145.0283">200</text><text fill="#333333" font-family="sans-serif" font-size="11" lengthAdjust="spacing" textLength="18" x="192" y="145.0283">300</text><text fill="#333333" font-family="sans-serif" font-size="11" lengthAdjust="spacing" textLength="18" x="242" y="145.0283">400</text><text fill="#333333" font-family="sans-serif" font-size="11" lengthAdjust="spacing" textLength="18" x="292" y="145.0283">500</text><text fill="#333333" font-family="sans-serif" font-size="11" lengthAdjust="spacing" textLength="18" x="342" y="145.0283">600</text><text fill="#333333" font-family="sans-serif" font-size="11" lengthAdjust="spacing" textLength="18" x="392" y="145.0283">700</text><text fill="#333333" font-family="sans-serif" font-size="11" lengthAdjust="spacing" textLength="18" x="442" y="145.0283">800</text><text fill="#333333" font-family="sans-serif" font-size="11" lengthAdjust="spacing" textLength="18" x="492" y="145.0283">900</text><text fill="#333333" font-family="sans-serif" font-size="11" lengthAdjust="spacing" textLength="24" x="539" y="145.0283">1000</text><text fill="#333333" font-family="sans-serif" font-size="11" lengthAdjust="spacing" textLength="24" x="589" y="145.0283">1100</text><text fill="#333333" font-family="sans-serif" font-size="11" lengthAdjust="spacing" textLength="24" x="639" y="145.0283">1200</text><text fill="#333333" font-family="sans-serif" font-size="11" lengthAdjust="spacing" textLength="24" x="689" y="145.0283">1300</text><text fill="#333333" font-family="sans-serif" font-size="11" lengthAdjust="spacing" textLength="24" x="739" y="145.0283">1400</text><text fill="#333333" font-family="sans-serif" font-size="11" lengthAdjust="spacing" textLength="24" x="789" y="145.0283">1500</text><text fill="#333333" font-family="sans-serif" font-size="11" lengthAdjust="spacing" textLength="24" x="839" y="145.0283">1600</text><!--MD5=[f2a0d32a66c9a3a8bd2460572b8e0938]
@startuml
binary "A" as A
binary "IDLE" as IDLE
concise "RuningTaskName" as RuningTaskName

scale 100 as 50 pixels

@0
A is low
IDLE is high
RuningTaskName is IDLE

@99
IDLE is low
A is high
RuningTaskName is A

@110
A is low
IDLE is high
RuningTaskName is IDLE

@199
IDLE is low
A is high
RuningTaskName is A

@210
A is low
IDLE is high
RuningTaskName is IDLE

@299
IDLE is low
A is high
RuningTaskName is A

@422
A is low
IDLE is high
RuningTaskName is IDLE

@499
IDLE is low
A is high
RuningTaskName is A

@510
A is low
IDLE is high
RuningTaskName is IDLE

@599
IDLE is low
A is high
RuningTaskName is A

@832
A is low
IDLE is high
RuningTaskName is IDLE

@899
IDLE is low
A is high
RuningTaskName is A

@1021
A is low
IDLE is high
RuningTaskName is IDLE

@1099
IDLE is low
A is high
RuningTaskName is A

@1110
A is low
IDLE is high
RuningTaskName is IDLE

@1199
IDLE is low
A is high
RuningTaskName is A

@1432
A is low
IDLE is high
RuningTaskName is IDLE

@1499
IDLE is low
A is high
RuningTaskName is A

@1500
IDLE is {hidden}
A is {hidden}
RuningTaskName is {hidden}

@enduml

PlantUML version 1.2022.7(Tue Aug 23 02:01:30 JST 2022)
(GPL source distribution)
Java Runtime: Java(TM) SE Runtime Environment
JVM: Java HotSpot(TM) 64-Bit Server VM
Default Encoding: MS932
Language: ja
Country: JP
--></g></svg>