<?xml version="1.0" encoding="UTF-8" standalone="no"?><svg xmlns="http://www.w3.org/2000/svg" xmlns:xlink="http://www.w3.org/1999/xlink" contentScriptType="application/ecmascript" contentStyleType="text/css" height="194px" preserveAspectRatio="none" style="width:553px;height:194px;" version="1.1" viewBox="0 0 553 194" width="553px" zoomAndPan="magnify"><defs/><g><line style="stroke:#000000;stroke-width:1.7;" x1="10" x2="10" y1="10" y2="153.9688"/><line style="stroke:#000000;stroke-width:1.7;" x1="532" x2="532" y1="10" y2="153.9688"/><line style="stroke:#AAAAAA;stroke-width:0.5;stroke-dasharray:3.0,5.0;" x1="27" x2="27" y1="10" y2="153.9688"/><line style="stroke:#AAAAAA;stroke-width:0.5;stroke-dasharray:3.0,5.0;" x1="77" x2="77" y1="10" y2="153.9688"/><line style="stroke:#AAAAAA;stroke-width:0.5;stroke-dasharray:3.0,5.0;" x1="127" x2="127" y1="10" y2="153.9688"/><line style="stroke:#AAAAAA;stroke-width:0.5;stroke-dasharray:3.0,5.0;" x1="177" x2="177" y1="10" y2="153.9688"/><line style="stroke:#AAAAAA;stroke-width:0.5;stroke-dasharray:3.0,5.0;" x1="227" x2="227" y1="10" y2="153.9688"/><line style="stroke:#AAAAAA;stroke-width:0.5;stroke-dasharray:3.0,5.0;" x1="277" x2="277" y1="10" y2="153.9688"/><line style="stroke:#AAAAAA;stroke-width:0.5;stroke-dasharray:3.0,5.0;" x1="327" x2="327" y1="10" y2="153.9688"/><line style="stroke:#AAAAAA;stroke-width:0.5;stroke-dasharray:3.0,5.0;" x1="377" x2="377" y1="10" y2="153.9688"/><line style="stroke:#AAAAAA;stroke-width:0.5;stroke-dasharray:3.0,5.0;" x1="427" x2="427" y1="10" y2="153.9688"/><line style="stroke:#AAAAAA;stroke-width:0.5;stroke-dasharray:3.0,5.0;" x1="477" x2="477" y1="10" y2="153.9688"/><line style="stroke:#AAAAAA;stroke-width:0.5;stroke-dasharray:3.0,5.0;" x1="527" x2="527" y1="10" y2="153.9688"/><line style="stroke:#000000;stroke-width:1.7;" x1="10" x2="532" y1="10" y2="10"/><text fill="#000000" font-family="sans-serif" font-size="12" lengthAdjust="spacingAndGlyphs" textLength="7" x="15" y="29.1543">A</text><line style="stroke:#038048;stroke-width:1.5;" x1="27" x2="76.5" y1="32" y2="32"/><line style="stroke:#038048;stroke-width:1.5;" x1="76.5" x2="126.5" y1="32" y2="32"/><line style="stroke:#038048;stroke-width:1.5;" x1="126.5" x2="176.5" y1="32" y2="32"/><line style="stroke:#038048;stroke-width:1.5;" x1="176.5" x2="226.5" y1="32" y2="32"/><line style="stroke:#038048;stroke-width:1.5;" x1="226.5" x2="276.5" y1="32" y2="32"/><line style="stroke:#038048;stroke-width:1.5;" x1="276.5" x2="326.5" y1="32" y2="32"/><line style="stroke:#038048;stroke-width:1.5;" x1="326.5" x2="376.5" y1="32" y2="32"/><line style="stroke:#038048;stroke-width:1.5;" x1="376.5" x2="426.5" y1="32" y2="32"/><line style="stroke:#038048;stroke-width:1.5;" x1="426.5" x2="476.5" y1="32" y2="32"/><line style="stroke:#038048;stroke-width:1.5;" x1="476.5" x2="502" y1="32" y2="32"/><line style="stroke:#038048;stroke-width:1.5;" x1="502" x2="527" y1="32" y2="32"/><line style="stroke:#000000;stroke-width:1.7;" x1="10" x2="532" y1="40" y2="40"/><text fill="#000000" font-family="sans-serif" font-size="12" lengthAdjust="spacingAndGlyphs" textLength="7" x="15" y="59.1543">B</text><line style="stroke:#038048;stroke-width:1.5;" x1="27" x2="27" y1="62" y2="62"/><line style="stroke:#038048;stroke-width:1.5;" x1="27" x2="27" y1="48" y2="62"/><line style="stroke:#038048;stroke-width:1.5;" x1="27" x2="76.5" y1="48" y2="48"/><line style="stroke:#038048;stroke-width:1.5;" x1="76.5" x2="76.5" y1="48" y2="62"/><line style="stroke:#038048;stroke-width:1.5;" x1="76.5" x2="126.5" y1="62" y2="62"/><line style="stroke:#038048;stroke-width:1.5;" x1="126.5" x2="126.5" y1="48" y2="62"/><line style="stroke:#038048;stroke-width:1.5;" x1="126.5" x2="176.5" y1="48" y2="48"/><line style="stroke:#038048;stroke-width:1.5;" x1="176.5" x2="176.5" y1="48" y2="62"/><line style="stroke:#038048;stroke-width:1.5;" x1="176.5" x2="226.5" y1="62" y2="62"/><line style="stroke:#038048;stroke-width:1.5;" x1="226.5" x2="226.5" y1="48" y2="62"/><line style="stroke:#038048;stroke-width:1.5;" x1="226.5" x2="276.5" y1="48" y2="48"/><line style="stroke:#038048;stroke-width:1.5;" x1="276.5" x2="276.5" y1="48" y2="62"/><line style="stroke:#038048;stroke-width:1.5;" x1="276.5" x2="326.5" y1="62" y2="62"/><line style="stroke:#038048;stroke-width:1.5;" x1="326.5" x2="326.5" y1="48" y2="62"/><line style="stroke:#038048;stroke-width:1.5;" x1="326.5" x2="376.5" y1="48" y2="48"/><line style="stroke:#038048;stroke-width:1.5;" x1="376.5" x2="376.5" y1="48" y2="62"/><line style="stroke:#038048;stroke-width:1.5;" x1="376.5" x2="426.5" y1="62" y2="62"/><line style="stroke:#038048;stroke-width:1.5;" x1="426.5" x2="426.5" y1="48" y2="62"/><line style="stroke:#038048;stroke-width:1.5;" x1="426.5" x2="476.5" y1="48" y2="48"/><line style="stroke:#038048;stroke-width:1.5;" x1="476.5" x2="476.5" y1="48" y2="62"/><line style="stroke:#038048;stroke-width:1.5;" x1="476.5" x2="502" y1="62" y2="62"/><line style="stroke:#038048;stroke-width:1.5;" x1="502" x2="527" y1="62" y2="62"/><line style="stroke:#000000;stroke-width:1.7;" x1="10" x2="532" y1="70" y2="70"/><text fill="#000000" font-family="sans-serif" font-size="12" lengthAdjust="spacingAndGlyphs" textLength="7" x="15" y="89.1543">C</text><line style="stroke:#038048;stroke-width:1.5;" x1="27" x2="76.5" y1="92" y2="92"/><line style="stroke:#038048;stroke-width:1.5;" x1="76.5" x2="76.5" y1="78" y2="92"/><line style="stroke:#038048;stroke-width:1.5;" x1="76.5" x2="126.5" y1="78" y2="78"/><line style="stroke:#038048;stroke-width:1.5;" x1="126.5" x2="126.5" y1="78" y2="92"/><line style="stroke:#038048;stroke-width:1.5;" x1="126.5" x2="176.5" y1="92" y2="92"/><line style="stroke:#038048;stroke-width:1.5;" x1="176.5" x2="176.5" y1="78" y2="92"/><line style="stroke:#038048;stroke-width:1.5;" x1="176.5" x2="226.5" y1="78" y2="78"/><line style="stroke:#038048;stroke-width:1.5;" x1="226.5" x2="226.5" y1="78" y2="92"/><line style="stroke:#038048;stroke-width:1.5;" x1="226.5" x2="276.5" y1="92" y2="92"/><line style="stroke:#038048;stroke-width:1.5;" x1="276.5" x2="276.5" y1="78" y2="92"/><line style="stroke:#038048;stroke-width:1.5;" x1="276.5" x2="326.5" y1="78" y2="78"/><line style="stroke:#038048;stroke-width:1.5;" x1="326.5" x2="326.5" y1="78" y2="92"/><line style="stroke:#038048;stroke-width:1.5;" x1="326.5" x2="376.5" y1="92" y2="92"/><line style="stroke:#038048;stroke-width:1.5;" x1="376.5" x2="376.5" y1="78" y2="92"/><line style="stroke:#038048;stroke-width:1.5;" x1="376.5" x2="426.5" y1="78" y2="78"/><line style="stroke:#038048;stroke-width:1.5;" x1="426.5" x2="426.5" y1="78" y2="92"/><line style="stroke:#038048;stroke-width:1.5;" x1="426.5" x2="476.5" y1="92" y2="92"/><line style="stroke:#038048;stroke-width:1.5;" x1="476.5" x2="476.5" y1="78" y2="92"/><line style="stroke:#038048;stroke-width:1.5;" x1="476.5" x2="502" y1="78" y2="78"/><line style="stroke:#038048;stroke-width:1.5;" x1="502" x2="502" y1="78" y2="92"/><line style="stroke:#038048;stroke-width:1.5;" x1="502" x2="527" y1="92" y2="92"/><line style="stroke:#000000;stroke-width:1.7;" x1="10" x2="532" y1="100" y2="100"/><text fill="#000000" font-family="sans-serif" font-size="12" lengthAdjust="spacingAndGlyphs" textLength="97" x="15" y="111.1387">RuningTaskName</text><line style="stroke:#000000;stroke-width:1.0;" x1="10" x2="113" y1="114.9688" y2="114.9688"/><line style="stroke:#000000;stroke-width:1.0;" x1="113" x2="123" y1="114.9688" y2="100"/><polygon fill="#D7E0F2" points="39,119.9688,64.5,119.9688,76.5,131.9688,64.5,143.9688,39,143.9688,27,131.9688" style="stroke:#038048;stroke-width:1.5;"/><polygon fill="#D7E0F2" points="88.5,119.9688,114.5,119.9688,126.5,131.9688,114.5,143.9688,88.5,143.9688,76.5,131.9688" style="stroke:#038048;stroke-width:1.5;"/><polygon fill="#D7E0F2" points="138.5,119.9688,164.5,119.9688,176.5,131.9688,164.5,143.9688,138.5,143.9688,126.5,131.9688" style="stroke:#038048;stroke-width:1.5;"/><polygon fill="#D7E0F2" points="188.5,119.9688,214.5,119.9688,226.5,131.9688,214.5,143.9688,188.5,143.9688,176.5,131.9688" style="stroke:#038048;stroke-width:1.5;"/><polygon fill="#D7E0F2" points="238.5,119.9688,264.5,119.9688,276.5,131.9688,264.5,143.9688,238.5,143.9688,226.5,131.9688" style="stroke:#038048;stroke-width:1.5;"/><polygon fill="#D7E0F2" points="288.5,119.9688,314.5,119.9688,326.5,131.9688,314.5,143.9688,288.5,143.9688,276.5,131.9688" style="stroke:#038048;stroke-width:1.5;"/><polygon fill="#D7E0F2" points="338.5,119.9688,364.5,119.9688,376.5,131.9688,364.5,143.9688,338.5,143.9688,326.5,131.9688" style="stroke:#038048;stroke-width:1.5;"/><polygon fill="#D7E0F2" points="388.5,119.9688,414.5,119.9688,426.5,131.9688,414.5,143.9688,388.5,143.9688,376.5,131.9688" style="stroke:#038048;stroke-width:1.5;"/><polygon fill="#D7E0F2" points="438.5,119.9688,464.5,119.9688,476.5,131.9688,464.5,143.9688,438.5,143.9688,426.5,131.9688" style="stroke:#038048;stroke-width:1.5;"/><polygon fill="#D7E0F2" points="488.5,119.9688,490,119.9688,502,131.9688,490,143.9688,488.5,143.9688,476.5,131.9688" style="stroke:#038048;stroke-width:1.5;"/><text fill="#000000" font-family="sans-serif" font-size="12" lengthAdjust="spacingAndGlyphs" textLength="7" x="48.25" y="136.123">B</text><text fill="#000000" font-family="sans-serif" font-size="12" lengthAdjust="spacingAndGlyphs" textLength="7" x="98" y="136.123">A</text><text fill="#000000" font-family="sans-serif" font-size="12" lengthAdjust="spacingAndGlyphs" textLength="7" x="148" y="136.123">A</text><text fill="#000000" font-family="sans-serif" font-size="12" lengthAdjust="spacingAndGlyphs" textLength="7" x="198" y="136.123">A</text><text fill="#000000" font-family="sans-serif" font-size="12" lengthAdjust="spacingAndGlyphs" textLength="7" x="248" y="136.123">A</text><text fill="#000000" font-family="sans-serif" font-size="12" lengthAdjust="spacingAndGlyphs" textLength="7" x="298" y="136.123">A</text><text fill="#000000" font-family="sans-serif" font-size="12" lengthAdjust="spacingAndGlyphs" textLength="7" x="348" y="136.123">A</text><text fill="#000000" font-family="sans-serif" font-size="12" lengthAdjust="spacingAndGlyphs" textLength="7" x="398" y="136.123">A</text><text fill="#000000" font-family="sans-serif" font-size="12" lengthAdjust="spacingAndGlyphs" textLength="7" x="448" y="136.123">A</text><text fill="#000000" font-family="sans-serif" font-size="12" lengthAdjust="spacingAndGlyphs" textLength="7" x="485.75" y="136.123">A</text><line style="stroke:#000000;stroke-width:2.0;" x1="27" x2="27" y1="153.9688" y2="158.9688"/><line style="stroke:#000000;stroke-width:2.0;" x1="77" x2="77" y1="153.9688" y2="158.9688"/><line style="stroke:#000000;stroke-width:2.0;" x1="127" x2="127" y1="153.9688" y2="158.9688"/><line style="stroke:#000000;stroke-width:2.0;" x1="177" x2="177" y1="153.9688" y2="158.9688"/><line style="stroke:#000000;stroke-width:2.0;" x1="227" x2="227" y1="153.9688" y2="158.9688"/><line style="stroke:#000000;stroke-width:2.0;" x1="277" x2="277" y1="153.9688" y2="158.9688"/><line style="stroke:#000000;stroke-width:2.0;" x1="327" x2="327" y1="153.9688" y2="158.9688"/><line style="stroke:#000000;stroke-width:2.0;" x1="377" x2="377" y1="153.9688" y2="158.9688"/><line style="stroke:#000000;stroke-width:2.0;" x1="427" x2="427" y1="153.9688" y2="158.9688"/><line style="stroke:#000000;stroke-width:2.0;" x1="477" x2="477" y1="153.9688" y2="158.9688"/><line style="stroke:#000000;stroke-width:2.0;" x1="527" x2="527" y1="153.9688" y2="158.9688"/><line style="stroke:#000000;stroke-width:2.0;" x1="27" x2="527" y1="153.9688" y2="153.9688"/><text fill="#000000" font-family="sans-serif" font-size="12" lengthAdjust="spacingAndGlyphs" textLength="7" x="23.5" y="171.1074">0</text><text fill="#000000" font-family="sans-serif" font-size="12" lengthAdjust="spacingAndGlyphs" textLength="21" x="66.5" y="171.1074">100</text><text fill="#000000" font-family="sans-serif" font-size="12" lengthAdjust="spacingAndGlyphs" textLength="21" x="116.5" y="171.1074">200</text><text fill="#000000" font-family="sans-serif" font-size="12" lengthAdjust="spacingAndGlyphs" textLength="21" x="166.5" y="171.1074">300</text><text fill="#000000" font-family="sans-serif" font-size="12" lengthAdjust="spacingAndGlyphs" textLength="21" x="216.5" y="171.1074">400</text><text fill="#000000" font-family="sans-serif" font-size="12" lengthAdjust="spacingAndGlyphs" textLength="21" x="266.5" y="171.1074">500</text><text fill="#000000" font-family="sans-serif" font-size="12" lengthAdjust="spacingAndGlyphs" textLength="21" x="316.5" y="171.1074">600</text><text fill="#000000" font-family="sans-serif" font-size="12" lengthAdjust="spacingAndGlyphs" textLength="21" x="366.5" y="171.1074">700</text><text fill="#000000" font-family="sans-serif" font-size="12" lengthAdjust="spacingAndGlyphs" textLength="21" x="416.5" y="171.1074">800</text><text fill="#000000" font-family="sans-serif" font-size="12" lengthAdjust="spacingAndGlyphs" textLength="21" x="466.5" y="171.1074">900</text><text fill="#000000" font-family="sans-serif" font-size="12" lengthAdjust="spacingAndGlyphs" textLength="28" x="513" y="171.1074">1000</text><text fill="#000000" font-family="sans-serif" font-size="14" lengthAdjust="spacingAndGlyphs" textLength="342" x="100" y="180.9326">sample_vTaskPrioritySet.c TaskSwitch Timing Diagram</text><!--MD5=[70102c66d452f5af4f4f7189fe69c720]
@startuml
binary "A" as A
binary "B" as B
binary "C" as C
concise "RuningTaskName" as RuningTaskName

caption sample_vTaskPrioritySet.c TaskSwitch Timing Diagram

scale 100 as 50 pixels

@0
B is high
RuningTaskName is B

@99
B is low
A is high
RuningTaskName is A
A is low
C is high
RuningTaskName is C

@199
C is low
A is high
RuningTaskName is A
A is low
B is high
RuningTaskName is B

@299
B is low
A is high
RuningTaskName is A
A is low
C is high
RuningTaskName is C

@399
C is low
A is high
RuningTaskName is A
A is low
B is high
RuningTaskName is B

@499
B is low
A is high
RuningTaskName is A
A is low
C is high
RuningTaskName is C

@599
C is low
A is high
RuningTaskName is A
A is low
B is high
RuningTaskName is B

@699
B is low
A is high
RuningTaskName is A
A is low
C is high
RuningTaskName is C

@799
C is low
A is high
RuningTaskName is A
A is low
B is high
RuningTaskName is B

@899
B is low
A is high
RuningTaskName is A
A is low
C is high
RuningTaskName is C

@950
A is {hidden}
B is {hidden}
C is {hidden}
RuningTaskName is {hidden}

@enduml

PlantUML version 1.2020.23(Sun Dec 13 19:14:58 GMT 2020)
(GPL source distribution)
Java Runtime: OpenJDK Runtime Environment
JVM: OpenJDK 64-Bit Server VM
Default Encoding: UTF-8
Language: en
Country: US
--></g></svg>