<?xml version="1.0" encoding="UTF-8" standalone="no"?><svg xmlns="http://www.w3.org/2000/svg" xmlns:xlink="http://www.w3.org/1999/xlink" contentStyleType="text/css" height="158px" preserveAspectRatio="none" style="width:875px;height:158px;background:#FFFFFF;" version="1.1" viewBox="0 0 875 158" width="875px" zoomAndPan="magnify"><defs/><g><line style="stroke:#333333;stroke-width:0.5;" x1="10" x2="10" y1="10" y2="127.6094"/><line style="stroke:#333333;stroke-width:0.5;" x1="856" x2="856" y1="10" y2="127.6094"/><line style="stroke:#333333;stroke-width:0.5;stroke-dasharray:3.0,5.0;" x1="51" x2="51" y1="10" y2="127.6094"/><line style="stroke:#333333;stroke-width:0.5;stroke-dasharray:3.0,5.0;" x1="101" x2="101" y1="10" y2="127.6094"/><line style="stroke:#333333;stroke-width:0.5;stroke-dasharray:3.0,5.0;" x1="151" x2="151" y1="10" y2="127.6094"/><line style="stroke:#333333;stroke-width:0.5;stroke-dasharray:3.0,5.0;" x1="201" x2="201" y1="10" y2="127.6094"/><line style="stroke:#333333;stroke-width:0.5;stroke-dasharray:3.0,5.0;" x1="251" x2="251" y1="10" y2="127.6094"/><line style="stroke:#333333;stroke-width:0.5;stroke-dasharray:3.0,5.0;" x1="301" x2="301" y1="10" y2="127.6094"/><line style="stroke:#333333;stroke-width:0.5;stroke-dasharray:3.0,5.0;" x1="351" x2="351" y1="10" y2="127.6094"/><line style="stroke:#333333;stroke-width:0.5;stroke-dasharray:3.0,5.0;" x1="401" x2="401" y1="10" y2="127.6094"/><line style="stroke:#333333;stroke-width:0.5;stroke-dasharray:3.0,5.0;" x1="451" x2="451" y1="10" y2="127.6094"/><line style="stroke:#333333;stroke-width:0.5;stroke-dasharray:3.0,5.0;" x1="501" x2="501" y1="10" y2="127.6094"/><line style="stroke:#333333;stroke-width:0.5;stroke-dasharray:3.0,5.0;" x1="551" x2="551" y1="10" y2="127.6094"/><line style="stroke:#333333;stroke-width:0.5;stroke-dasharray:3.0,5.0;" x1="601" x2="601" y1="10" y2="127.6094"/><line style="stroke:#333333;stroke-width:0.5;stroke-dasharray:3.0,5.0;" x1="651" x2="651" y1="10" y2="127.6094"/><line style="stroke:#333333;stroke-width:0.5;stroke-dasharray:3.0,5.0;" x1="701" x2="701" y1="10" y2="127.6094"/><line style="stroke:#333333;stroke-width:0.5;stroke-dasharray:3.0,5.0;" x1="751" x2="751" y1="10" y2="127.6094"/><line style="stroke:#333333;stroke-width:0.5;stroke-dasharray:3.0,5.0;" x1="801" x2="801" y1="10" y2="127.6094"/><line style="stroke:#333333;stroke-width:0.5;stroke-dasharray:3.0,5.0;" x1="851" x2="851" y1="10" y2="127.6094"/><line style="stroke:#333333;stroke-width:0.5;" x1="10" x2="856" y1="10" y2="10"/><text fill="#333333" font-family="sans-serif" font-size="14" font-weight="bold" lengthAdjust="spacing" textLength="9" x="15" y="30.7285">A</text><line style="stroke:#006400;stroke-width:2.0;" x1="51" x2="51" y1="32" y2="32"/><line style="stroke:#006400;stroke-width:2.0;" x1="51" x2="100.5" y1="32" y2="32"/><line style="stroke:#006400;stroke-width:2.0;" x1="100.5" x2="100.5" y1="18" y2="32"/><line style="stroke:#006400;stroke-width:2.0;" x1="100.5" x2="106" y1="18" y2="18"/><line style="stroke:#006400;stroke-width:2.0;" x1="106" x2="106" y1="18" y2="32"/><line style="stroke:#006400;stroke-width:2.0;" x1="106" x2="156" y1="32" y2="32"/><line style="stroke:#006400;stroke-width:2.0;" x1="156" x2="156" y1="18" y2="32"/><line style="stroke:#006400;stroke-width:2.0;" x1="156" x2="161.5" y1="18" y2="18"/><line style="stroke:#006400;stroke-width:2.0;" x1="161.5" x2="161.5" y1="18" y2="32"/><line style="stroke:#006400;stroke-width:2.0;" x1="161.5" x2="211.5" y1="32" y2="32"/><line style="stroke:#006400;stroke-width:2.0;" x1="211.5" x2="211.5" y1="18" y2="32"/><line style="stroke:#006400;stroke-width:2.0;" x1="211.5" x2="267.5" y1="18" y2="18"/><line style="stroke:#006400;stroke-width:2.0;" x1="267.5" x2="267.5" y1="18" y2="32"/><line style="stroke:#006400;stroke-width:2.0;" x1="267.5" x2="317.5" y1="32" y2="32"/><line style="stroke:#006400;stroke-width:2.0;" x1="317.5" x2="317.5" y1="18" y2="32"/><line style="stroke:#006400;stroke-width:2.0;" x1="317.5" x2="323" y1="18" y2="18"/><line style="stroke:#006400;stroke-width:2.0;" x1="323" x2="323" y1="18" y2="32"/><line style="stroke:#006400;stroke-width:2.0;" x1="323" x2="373" y1="32" y2="32"/><line style="stroke:#006400;stroke-width:2.0;" x1="373" x2="373" y1="18" y2="32"/><line style="stroke:#006400;stroke-width:2.0;" x1="373" x2="379" y1="18" y2="18"/><line style="stroke:#006400;stroke-width:2.0;" x1="379" x2="379" y1="18" y2="32"/><line style="stroke:#006400;stroke-width:2.0;" x1="379" x2="429" y1="32" y2="32"/><line style="stroke:#006400;stroke-width:2.0;" x1="429" x2="429" y1="18" y2="32"/><line style="stroke:#006400;stroke-width:2.0;" x1="429" x2="534.5" y1="18" y2="18"/><line style="stroke:#006400;stroke-width:2.0;" x1="534.5" x2="534.5" y1="18" y2="32"/><line style="stroke:#006400;stroke-width:2.0;" x1="534.5" x2="584.5" y1="32" y2="32"/><line style="stroke:#006400;stroke-width:2.0;" x1="584.5" x2="584.5" y1="18" y2="32"/><line style="stroke:#006400;stroke-width:2.0;" x1="584.5" x2="590" y1="18" y2="18"/><line style="stroke:#006400;stroke-width:2.0;" x1="590" x2="590" y1="18" y2="32"/><line style="stroke:#006400;stroke-width:2.0;" x1="590" x2="640" y1="32" y2="32"/><line style="stroke:#006400;stroke-width:2.0;" x1="640" x2="640" y1="18" y2="32"/><line style="stroke:#006400;stroke-width:2.0;" x1="640" x2="645.5" y1="18" y2="18"/><line style="stroke:#006400;stroke-width:2.0;" x1="645.5" x2="645.5" y1="18" y2="32"/><line style="stroke:#006400;stroke-width:2.0;" x1="645.5" x2="695.5" y1="32" y2="32"/><line style="stroke:#006400;stroke-width:2.0;" x1="695.5" x2="695.5" y1="18" y2="32"/><line style="stroke:#006400;stroke-width:2.0;" x1="695.5" x2="751" y1="18" y2="18"/><line style="stroke:#006400;stroke-width:2.0;" x1="751" x2="751" y1="18" y2="32"/><line style="stroke:#006400;stroke-width:2.0;" x1="751" x2="801" y1="32" y2="32"/><line style="stroke:#006400;stroke-width:2.0;" x1="801" x2="851" y1="32" y2="32"/><line style="stroke:#333333;stroke-width:0.5;" x1="10" x2="856" y1="40" y2="40"/><text fill="#333333" font-family="sans-serif" font-size="14" font-weight="bold" lengthAdjust="spacing" textLength="31" x="15" y="60.7285">IDLE</text><line style="stroke:#006400;stroke-width:2.0;" x1="51" x2="51" y1="62" y2="62"/><line style="stroke:#006400;stroke-width:2.0;" x1="51" x2="51" y1="48" y2="62"/><line style="stroke:#006400;stroke-width:2.0;" x1="51" x2="100.5" y1="48" y2="48"/><line style="stroke:#006400;stroke-width:2.0;" x1="100.5" x2="100.5" y1="48" y2="62"/><line style="stroke:#006400;stroke-width:2.0;" x1="100.5" x2="106" y1="62" y2="62"/><line style="stroke:#006400;stroke-width:2.0;" x1="106" x2="106" y1="48" y2="62"/><line style="stroke:#006400;stroke-width:2.0;" x1="106" x2="156" y1="48" y2="48"/><line style="stroke:#006400;stroke-width:2.0;" x1="156" x2="156" y1="48" y2="62"/><line style="stroke:#006400;stroke-width:2.0;" x1="156" x2="161.5" y1="62" y2="62"/><line style="stroke:#006400;stroke-width:2.0;" x1="161.5" x2="161.5" y1="48" y2="62"/><line style="stroke:#006400;stroke-width:2.0;" x1="161.5" x2="211.5" y1="48" y2="48"/><line style="stroke:#006400;stroke-width:2.0;" x1="211.5" x2="211.5" y1="48" y2="62"/><line style="stroke:#006400;stroke-width:2.0;" x1="211.5" x2="267.5" y1="62" y2="62"/><line style="stroke:#006400;stroke-width:2.0;" x1="267.5" x2="267.5" y1="48" y2="62"/><line style="stroke:#006400;stroke-width:2.0;" x1="267.5" x2="317.5" y1="48" y2="48"/><line style="stroke:#006400;stroke-width:2.0;" x1="317.5" x2="317.5" y1="48" y2="62"/><line style="stroke:#006400;stroke-width:2.0;" x1="317.5" x2="323" y1="62" y2="62"/><line style="stroke:#006400;stroke-width:2.0;" x1="323" x2="323" y1="48" y2="62"/><line style="stroke:#006400;stroke-width:2.0;" x1="323" x2="373" y1="48" y2="48"/><line style="stroke:#006400;stroke-width:2.0;" x1="373" x2="373" y1="48" y2="62"/><line style="stroke:#006400;stroke-width:2.0;" x1="373" x2="379" y1="62" y2="62"/><line style="stroke:#006400;stroke-width:2.0;" x1="379" x2="379" y1="48" y2="62"/><line style="stroke:#006400;stroke-width:2.0;" x1="379" x2="429" y1="48" y2="48"/><line style="stroke:#006400;stroke-width:2.0;" x1="429" x2="429" y1="48" y2="62"/><line style="stroke:#006400;stroke-width:2.0;" x1="429" x2="534.5" y1="62" y2="62"/><line style="stroke:#006400;stroke-width:2.0;" x1="534.5" x2="534.5" y1="48" y2="62"/><line style="stroke:#006400;stroke-width:2.0;" x1="534.5" x2="584.5" y1="48" y2="48"/><line style="stroke:#006400;stroke-width:2.0;" x1="584.5" x2="584.5" y1="48" y2="62"/><line style="stroke:#006400;stroke-width:2.0;" x1="584.5" x2="590" y1="62" y2="62"/><line style="stroke:#006400;stroke-width:2.0;" x1="590" x2="590" y1="48" y2="62"/><line style="stroke:#006400;stroke-width:2.0;" x1="590" x2="640" y1="48" y2="48"/><line style="stroke:#006400;stroke-width:2.0;" x1="640" x2="640" y1="48" y2="62"/><line style="stroke:#006400;stroke-width:2.0;" x1="640" x2="645.5" y1="62" y2="62"/><line style="stroke:#006400;stroke-width:2.0;" x1="645.5" x2="645.5" y1="48" y2="62"/><line style="stroke:#006400;stroke-width:2.0;" x1="645.5" x2="695.5" y1="48" y2="48"/><line style="stroke:#006400;stroke-width:2.0;" x1="695.5" x2="695.5" y1="48" y2="62"/><line style="stroke:#006400;stroke-width:2.0;" x1="695.5" x2="751" y1="62" y2="62"/><line style="stroke:#006400;stroke-width:2.0;" x1="751" x2="751" y1="48" y2="62"/><line style="stroke:#006400;stroke-width:2.0;" x1="751" x2="801" y1="48" y2="48"/><line style="stroke:#006400;stroke-width:2.0;" x1="801" x2="801" y1="48" y2="62"/><line style="stroke:#006400;stroke-width:2.0;" x1="801" x2="851" y1="62" y2="62"/><line style="stroke:#333333;stroke-width:0.5;" x1="10" x2="856" y1="70" y2="70"/><text fill="#333333" font-family="sans-serif" font-size="14" font-weight="bold" lengthAdjust="spacing" textLength="121" x="15" y="84.5332">RuningTaskName</text><line style="stroke:#333333;stroke-width:0.5;" x1="10" x2="137" y1="88.6094" y2="88.6094"/><line style="stroke:#333333;stroke-width:0.5;" x1="137" x2="147" y1="88.6094" y2="70"/><polygon fill="#E2E2F0" points="63,93.6094,88.5,93.6094,100.5,105.6094,88.5,117.6094,63,117.6094,51,105.6094" style="stroke:#006400;stroke-width:1.5;"/><polygon fill="#E2E2F0" points="112.5,93.6094,94,93.6094,106,105.6094,94,117.6094,112.5,117.6094,100.5,105.6094" style="stroke:#006400;stroke-width:1.5;"/><polygon fill="#E2E2F0" points="118,93.6094,144,93.6094,156,105.6094,144,117.6094,118,117.6094,106,105.6094" style="stroke:#006400;stroke-width:1.5;"/><polygon fill="#E2E2F0" points="168,93.6094,149.5,93.6094,161.5,105.6094,149.5,117.6094,168,117.6094,156,105.6094" style="stroke:#006400;stroke-width:1.5;"/><polygon fill="#E2E2F0" points="173.5,93.6094,199.5,93.6094,211.5,105.6094,199.5,117.6094,173.5,117.6094,161.5,105.6094" style="stroke:#006400;stroke-width:1.5;"/><polygon fill="#E2E2F0" points="223.5,93.6094,255.5,93.6094,267.5,105.6094,255.5,117.6094,223.5,117.6094,211.5,105.6094" style="stroke:#006400;stroke-width:1.5;"/><polygon fill="#E2E2F0" points="279.5,93.6094,305.5,93.6094,317.5,105.6094,305.5,117.6094,279.5,117.6094,267.5,105.6094" style="stroke:#006400;stroke-width:1.5;"/><polygon fill="#E2E2F0" points="329.5,93.6094,311,93.6094,323,105.6094,311,117.6094,329.5,117.6094,317.5,105.6094" style="stroke:#006400;stroke-width:1.5;"/><polygon fill="#E2E2F0" points="335,93.6094,361,93.6094,373,105.6094,361,117.6094,335,117.6094,323,105.6094" style="stroke:#006400;stroke-width:1.5;"/><polygon fill="#E2E2F0" points="385,93.6094,367,93.6094,379,105.6094,367,117.6094,385,117.6094,373,105.6094" style="stroke:#006400;stroke-width:1.5;"/><polygon fill="#E2E2F0" points="391,93.6094,417,93.6094,429,105.6094,417,117.6094,391,117.6094,379,105.6094" style="stroke:#006400;stroke-width:1.5;"/><polygon fill="#E2E2F0" points="441,93.6094,522.5,93.6094,534.5,105.6094,522.5,117.6094,441,117.6094,429,105.6094" style="stroke:#006400;stroke-width:1.5;"/><polygon fill="#E2E2F0" points="546.5,93.6094,572.5,93.6094,584.5,105.6094,572.5,117.6094,546.5,117.6094,534.5,105.6094" style="stroke:#006400;stroke-width:1.5;"/><polygon fill="#E2E2F0" points="596.5,93.6094,578,93.6094,590,105.6094,578,117.6094,596.5,117.6094,584.5,105.6094" style="stroke:#006400;stroke-width:1.5;"/><polygon fill="#E2E2F0" points="602,93.6094,628,93.6094,640,105.6094,628,117.6094,602,117.6094,590,105.6094" style="stroke:#006400;stroke-width:1.5;"/><polygon fill="#E2E2F0" points="652,93.6094,633.5,93.6094,645.5,105.6094,633.5,117.6094,652,117.6094,640,105.6094" style="stroke:#006400;stroke-width:1.5;"/><polygon fill="#E2E2F0" points="657.5,93.6094,683.5,93.6094,695.5,105.6094,683.5,117.6094,657.5,117.6094,645.5,105.6094" style="stroke:#006400;stroke-width:1.5;"/><polygon fill="#E2E2F0" points="707.5,93.6094,739,93.6094,751,105.6094,739,117.6094,707.5,117.6094,695.5,105.6094" style="stroke:#006400;stroke-width:1.5;"/><polygon fill="#E2E2F0" points="763,93.6094,789,93.6094,801,105.6094,789,117.6094,763,117.6094,751,105.6094" style="stroke:#006400;stroke-width:1.5;"/><text fill="#333333" font-family="sans-serif" font-size="12" font-weight="bold" lengthAdjust="spacing" textLength="25" x="63.25" y="110.5195">IDLE</text><text fill="#333333" font-family="sans-serif" font-size="12" font-weight="bold" lengthAdjust="spacing" textLength="8" x="99.25" y="110.5195">A</text><text fill="#333333" font-family="sans-serif" font-size="12" font-weight="bold" lengthAdjust="spacing" textLength="25" x="118.5" y="110.5195">IDLE</text><text fill="#333333" font-family="sans-serif" font-size="12" font-weight="bold" lengthAdjust="spacing" textLength="8" x="154.75" y="110.5195">A</text><text fill="#333333" font-family="sans-serif" font-size="12" font-weight="bold" lengthAdjust="spacing" textLength="25" x="174" y="110.5195">IDLE</text><text fill="#333333" font-family="sans-serif" font-size="12" font-weight="bold" lengthAdjust="spacing" textLength="8" x="235.5" y="110.5195">A</text><text fill="#333333" font-family="sans-serif" font-size="12" font-weight="bold" lengthAdjust="spacing" textLength="25" x="280" y="110.5195">IDLE</text><text fill="#333333" font-family="sans-serif" font-size="12" font-weight="bold" lengthAdjust="spacing" textLength="8" x="316.25" y="110.5195">A</text><text fill="#333333" font-family="sans-serif" font-size="12" font-weight="bold" lengthAdjust="spacing" textLength="25" x="335.5" y="110.5195">IDLE</text><text fill="#333333" font-family="sans-serif" font-size="12" font-weight="bold" lengthAdjust="spacing" textLength="8" x="372" y="110.5195">A</text><text fill="#333333" font-family="sans-serif" font-size="12" font-weight="bold" lengthAdjust="spacing" textLength="25" x="391.5" y="110.5195">IDLE</text><text fill="#333333" font-family="sans-serif" font-size="12" font-weight="bold" lengthAdjust="spacing" textLength="8" x="477.75" y="110.5195">A</text><text fill="#333333" font-family="sans-serif" font-size="12" font-weight="bold" lengthAdjust="spacing" textLength="25" x="547" y="110.5195">IDLE</text><text fill="#333333" font-family="sans-serif" font-size="12" font-weight="bold" lengthAdjust="spacing" textLength="8" x="583.25" y="110.5195">A</text><text fill="#333333" font-family="sans-serif" font-size="12" font-weight="bold" lengthAdjust="spacing" textLength="25" x="602.5" y="110.5195">IDLE</text><text fill="#333333" font-family="sans-serif" font-size="12" font-weight="bold" lengthAdjust="spacing" textLength="8" x="638.75" y="110.5195">A</text><text fill="#333333" font-family="sans-serif" font-size="12" font-weight="bold" lengthAdjust="spacing" textLength="25" x="658" y="110.5195">IDLE</text><text fill="#333333" font-family="sans-serif" font-size="12" font-weight="bold" lengthAdjust="spacing" textLength="8" x="719.25" y="110.5195">A</text><text fill="#333333" font-family="sans-serif" font-size="12" font-weight="bold" lengthAdjust="spacing" textLength="25" x="763.5" y="110.5195">IDLE</text><line style="stroke:#333333;stroke-width:2.0;" x1="51" x2="51" y1="127.6094" y2="132.6094"/><line style="stroke:#333333;stroke-width:2.0;" x1="101" x2="101" y1="127.6094" y2="132.6094"/><line style="stroke:#333333;stroke-width:2.0;" x1="151" x2="151" y1="127.6094" y2="132.6094"/><line style="stroke:#333333;stroke-width:2.0;" x1="201" x2="201" y1="127.6094" y2="132.6094"/><line style="stroke:#333333;stroke-width:2.0;" x1="251" x2="251" y1="127.6094" y2="132.6094"/><line style="stroke:#333333;stroke-width:2.0;" x1="301" x2="301" y1="127.6094" y2="132.6094"/><line style="stroke:#333333;stroke-width:2.0;" x1="351" x2="351" y1="127.6094" y2="132.6094"/><line style="stroke:#333333;stroke-width:2.0;" x1="401" x2="401" y1="127.6094" y2="132.6094"/><line style="stroke:#333333;stroke-width:2.0;" x1="451" x2="451" y1="127.6094" y2="132.6094"/><line style="stroke:#333333;stroke-width:2.0;" x1="501" x2="501" y1="127.6094" y2="132.6094"/><line style="stroke:#333333;stroke-width:2.0;" x1="551" x2="551" y1="127.6094" y2="132.6094"/><line style="stroke:#333333;stroke-width:2.0;" x1="601" x2="601" y1="127.6094" y2="132.6094"/><line style="stroke:#333333;stroke-width:2.0;" x1="651" x2="651" y1="127.6094" y2="132.6094"/><line style="stroke:#333333;stroke-width:2.0;" x1="701" x2="701" y1="127.6094" y2="132.6094"/><line style="stroke:#333333;stroke-width:2.0;" x1="751" x2="751" y1="127.6094" y2="132.6094"/><line style="stroke:#333333;stroke-width:2.0;" x1="801" x2="801" y1="127.6094" y2="132.6094"/><line style="stroke:#333333;stroke-width:2.0;" x1="851" x2="851" y1="127.6094" y2="132.6094"/><line style="stroke:#333333;stroke-width:2.0;" x1="51" x2="851" y1="127.6094" y2="127.6094"/><text fill="#333333" font-family="sans-serif" font-size="11" lengthAdjust="spacing" textLength="6" x="48" y="145.0283">0</text><text fill="#333333" font-family="sans-serif" font-size="11" lengthAdjust="spacing" textLength="18" x="92" y="145.0283">100</text><text fill="#333333" font-family="sans-serif" font-size="11" lengthAdjust="spacing" textLength="18" x="142" y="145.0283">200</text><text fill="#333333" font-family="sans-serif" font-size="11" lengthAdjust="spacing" textLength="18" x="192" y="145.0283">300</text><text fill="#333333" font-family="sans-serif" font-size="11" lengthAdjust="spacing" textLength="18" x="242" y="145.0283">400</text><text fill="#333333" font-family="sans-serif" font-size="11" lengthAdjust="spacing" textLength="18" x="292" y="145.0283">500</text><text fill="#333333" font-family="sans-serif" font-size="11" lengthAdjust="spacing" textLength="18" x="342" y="145.0283">600</text><text fill="#333333" font-family="sans-serif" font-size="11" lengthAdjust="spacing" textLength="18" x="392" y="145.0283">700</text><text fill="#333333" font-family="sans-serif" font-size="11" lengthAdjust="spacing" textLength="18" x="442" y="145.0283">800</text><text fill="#333333" font-family="sans-serif" font-size="11" lengthAdjust="spacing" textLength="18" x="492" y="145.0283">900</text><text fill="#333333" font-family="sans-serif" font-size="11" lengthAdjust="spacing" textLength="24" x="539" y="145.0283">1000</text><text fill="#333333" font-family="sans-serif" font-size="11" lengthAdjust="spacing" textLength="24" x="589" y="145.0283">1100</text><text fill="#333333" font-family="sans-serif" font-size="11" lengthAdjust="spacing" textLength="24" x="639" y="145.0283">1200</text><text fill="#333333" font-family="sans-serif" font-size="11" lengthAdjust="spacing" textLength="24" x="689" y="145.0283">1300</text><text fill="#333333" font-family="sans-serif" font-size="11" lengthAdjust="spacing" textLength="24" x="739" y="145.0283">1400</text><text fill="#333333" font-family="sans-serif" font-size="11" lengthAdjust="spacing" textLength="24" x="789" y="145.0283">1500</text><text fill="#333333" font-family="sans-serif" font-size="11" lengthAdjust="spacing" textLength="24" x="839" y="145.0283">1600</text><!--MD5=[4faf075b3796d7fe1babb4b2061941b5]
@startuml
binary "A" as A
binary "IDLE" as IDLE
concise "RuningTaskName" as RuningTaskName

scale 100 as 50 pixels

@0
A is low
IDLE is high
RuningTaskName is IDLE

@99
IDLE is low
A is high
RuningTaskName is A

@110
A is low
IDLE is high
RuningTaskName is IDLE

@210
IDLE is low
A is high
RuningTaskName is A

@221
A is low
IDLE is high
RuningTaskName is IDLE

@321
IDLE is low
A is high
RuningTaskName is A

@433
A is low
IDLE is high
RuningTaskName is IDLE

@533
IDLE is low
A is high
RuningTaskName is A

@544
A is low
IDLE is high
RuningTaskName is IDLE

@644
IDLE is low
A is high
RuningTaskName is A

@656
A is low
IDLE is high
RuningTaskName is IDLE

@756
IDLE is low
A is high
RuningTaskName is A

@967
A is low
IDLE is high
RuningTaskName is IDLE

@1067
IDLE is low
A is high
RuningTaskName is A

@1078
A is low
IDLE is high
RuningTaskName is IDLE

@1178
IDLE is low
A is high
RuningTaskName is A

@1189
A is low
IDLE is high
RuningTaskName is IDLE

@1289
IDLE is low
A is high
RuningTaskName is A

@1400
A is low
IDLE is high
RuningTaskName is IDLE

@1500
IDLE is {hidden}
A is {hidden}
RuningTaskName is {hidden}

@enduml

PlantUML version 1.2022.7(Tue Aug 23 02:01:30 JST 2022)
(GPL source distribution)
Java Runtime: Java(TM) SE Runtime Environment
JVM: Java HotSpot(TM) 64-Bit Server VM
Default Encoding: MS932
Language: ja
Country: JP
--></g></svg>