<?xml version="1.0" encoding="UTF-8" standalone="no"?><svg xmlns="http://www.w3.org/2000/svg" xmlns:xlink="http://www.w3.org/1999/xlink" contentScriptType="application/ecmascript" contentStyleType="text/css" height="164px" preserveAspectRatio="none" style="width:870px;height:164px;" version="1.1" viewBox="0 0 870 164" width="870px" zoomAndPan="magnify"><defs/><g><line style="stroke:#000000;stroke-width:1.7;" x1="10" x2="10" y1="10" y2="123.9688"/><line style="stroke:#000000;stroke-width:1.7;" x1="849" x2="849" y1="10" y2="123.9688"/><line style="stroke:#AAAAAA;stroke-width:0.5;stroke-dasharray:3.0,5.0;" x1="44" x2="44" y1="10" y2="123.9688"/><line style="stroke:#AAAAAA;stroke-width:0.5;stroke-dasharray:3.0,5.0;" x1="94" x2="94" y1="10" y2="123.9688"/><line style="stroke:#AAAAAA;stroke-width:0.5;stroke-dasharray:3.0,5.0;" x1="144" x2="144" y1="10" y2="123.9688"/><line style="stroke:#AAAAAA;stroke-width:0.5;stroke-dasharray:3.0,5.0;" x1="194" x2="194" y1="10" y2="123.9688"/><line style="stroke:#AAAAAA;stroke-width:0.5;stroke-dasharray:3.0,5.0;" x1="244" x2="244" y1="10" y2="123.9688"/><line style="stroke:#AAAAAA;stroke-width:0.5;stroke-dasharray:3.0,5.0;" x1="294" x2="294" y1="10" y2="123.9688"/><line style="stroke:#AAAAAA;stroke-width:0.5;stroke-dasharray:3.0,5.0;" x1="344" x2="344" y1="10" y2="123.9688"/><line style="stroke:#AAAAAA;stroke-width:0.5;stroke-dasharray:3.0,5.0;" x1="394" x2="394" y1="10" y2="123.9688"/><line style="stroke:#AAAAAA;stroke-width:0.5;stroke-dasharray:3.0,5.0;" x1="444" x2="444" y1="10" y2="123.9688"/><line style="stroke:#AAAAAA;stroke-width:0.5;stroke-dasharray:3.0,5.0;" x1="494" x2="494" y1="10" y2="123.9688"/><line style="stroke:#AAAAAA;stroke-width:0.5;stroke-dasharray:3.0,5.0;" x1="544" x2="544" y1="10" y2="123.9688"/><line style="stroke:#AAAAAA;stroke-width:0.5;stroke-dasharray:3.0,5.0;" x1="594" x2="594" y1="10" y2="123.9688"/><line style="stroke:#AAAAAA;stroke-width:0.5;stroke-dasharray:3.0,5.0;" x1="644" x2="644" y1="10" y2="123.9688"/><line style="stroke:#AAAAAA;stroke-width:0.5;stroke-dasharray:3.0,5.0;" x1="694" x2="694" y1="10" y2="123.9688"/><line style="stroke:#AAAAAA;stroke-width:0.5;stroke-dasharray:3.0,5.0;" x1="744" x2="744" y1="10" y2="123.9688"/><line style="stroke:#AAAAAA;stroke-width:0.5;stroke-dasharray:3.0,5.0;" x1="794" x2="794" y1="10" y2="123.9688"/><line style="stroke:#AAAAAA;stroke-width:0.5;stroke-dasharray:3.0,5.0;" x1="844" x2="844" y1="10" y2="123.9688"/><line style="stroke:#000000;stroke-width:1.7;" x1="10" x2="849" y1="10" y2="10"/><text fill="#000000" font-family="sans-serif" font-size="12" lengthAdjust="spacingAndGlyphs" textLength="7" x="15" y="29.1543">A</text><line style="stroke:#038048;stroke-width:1.5;" x1="44" x2="44" y1="32" y2="32"/><line style="stroke:#038048;stroke-width:1.5;" x1="44" x2="93.5" y1="32" y2="32"/><line style="stroke:#038048;stroke-width:1.5;" x1="93.5" x2="93.5" y1="18" y2="32"/><line style="stroke:#038048;stroke-width:1.5;" x1="93.5" x2="99" y1="18" y2="18"/><line style="stroke:#038048;stroke-width:1.5;" x1="99" x2="99" y1="18" y2="32"/><line style="stroke:#038048;stroke-width:1.5;" x1="99" x2="149" y1="32" y2="32"/><line style="stroke:#038048;stroke-width:1.5;" x1="149" x2="149" y1="18" y2="32"/><line style="stroke:#038048;stroke-width:1.5;" x1="149" x2="154.5" y1="18" y2="18"/><line style="stroke:#038048;stroke-width:1.5;" x1="154.5" x2="154.5" y1="18" y2="32"/><line style="stroke:#038048;stroke-width:1.5;" x1="154.5" x2="204.5" y1="32" y2="32"/><line style="stroke:#038048;stroke-width:1.5;" x1="204.5" x2="204.5" y1="18" y2="32"/><line style="stroke:#038048;stroke-width:1.5;" x1="204.5" x2="260.5" y1="18" y2="18"/><line style="stroke:#038048;stroke-width:1.5;" x1="260.5" x2="260.5" y1="18" y2="32"/><line style="stroke:#038048;stroke-width:1.5;" x1="260.5" x2="310.5" y1="32" y2="32"/><line style="stroke:#038048;stroke-width:1.5;" x1="310.5" x2="310.5" y1="18" y2="32"/><line style="stroke:#038048;stroke-width:1.5;" x1="310.5" x2="316" y1="18" y2="18"/><line style="stroke:#038048;stroke-width:1.5;" x1="316" x2="316" y1="18" y2="32"/><line style="stroke:#038048;stroke-width:1.5;" x1="316" x2="366" y1="32" y2="32"/><line style="stroke:#038048;stroke-width:1.5;" x1="366" x2="366" y1="18" y2="32"/><line style="stroke:#038048;stroke-width:1.5;" x1="366" x2="372" y1="18" y2="18"/><line style="stroke:#038048;stroke-width:1.5;" x1="372" x2="372" y1="18" y2="32"/><line style="stroke:#038048;stroke-width:1.5;" x1="372" x2="422" y1="32" y2="32"/><line style="stroke:#038048;stroke-width:1.5;" x1="422" x2="422" y1="18" y2="32"/><line style="stroke:#038048;stroke-width:1.5;" x1="422" x2="527.5" y1="18" y2="18"/><line style="stroke:#038048;stroke-width:1.5;" x1="527.5" x2="527.5" y1="18" y2="32"/><line style="stroke:#038048;stroke-width:1.5;" x1="527.5" x2="577.5" y1="32" y2="32"/><line style="stroke:#038048;stroke-width:1.5;" x1="577.5" x2="577.5" y1="18" y2="32"/><line style="stroke:#038048;stroke-width:1.5;" x1="577.5" x2="583" y1="18" y2="18"/><line style="stroke:#038048;stroke-width:1.5;" x1="583" x2="583" y1="18" y2="32"/><line style="stroke:#038048;stroke-width:1.5;" x1="583" x2="633" y1="32" y2="32"/><line style="stroke:#038048;stroke-width:1.5;" x1="633" x2="633" y1="18" y2="32"/><line style="stroke:#038048;stroke-width:1.5;" x1="633" x2="638.5" y1="18" y2="18"/><line style="stroke:#038048;stroke-width:1.5;" x1="638.5" x2="638.5" y1="18" y2="32"/><line style="stroke:#038048;stroke-width:1.5;" x1="638.5" x2="688.5" y1="32" y2="32"/><line style="stroke:#038048;stroke-width:1.5;" x1="688.5" x2="688.5" y1="18" y2="32"/><line style="stroke:#038048;stroke-width:1.5;" x1="688.5" x2="744" y1="18" y2="18"/><line style="stroke:#038048;stroke-width:1.5;" x1="744" x2="744" y1="18" y2="32"/><line style="stroke:#038048;stroke-width:1.5;" x1="744" x2="794" y1="32" y2="32"/><line style="stroke:#038048;stroke-width:1.5;" x1="794" x2="844" y1="32" y2="32"/><line style="stroke:#000000;stroke-width:1.7;" x1="10" x2="849" y1="40" y2="40"/><text fill="#000000" font-family="sans-serif" font-size="12" lengthAdjust="spacingAndGlyphs" textLength="24" x="15" y="59.1543">IDLE</text><line style="stroke:#038048;stroke-width:1.5;" x1="44" x2="44" y1="62" y2="62"/><line style="stroke:#038048;stroke-width:1.5;" x1="44" x2="44" y1="48" y2="62"/><line style="stroke:#038048;stroke-width:1.5;" x1="44" x2="93.5" y1="48" y2="48"/><line style="stroke:#038048;stroke-width:1.5;" x1="93.5" x2="93.5" y1="48" y2="62"/><line style="stroke:#038048;stroke-width:1.5;" x1="93.5" x2="99" y1="62" y2="62"/><line style="stroke:#038048;stroke-width:1.5;" x1="99" x2="99" y1="48" y2="62"/><line style="stroke:#038048;stroke-width:1.5;" x1="99" x2="149" y1="48" y2="48"/><line style="stroke:#038048;stroke-width:1.5;" x1="149" x2="149" y1="48" y2="62"/><line style="stroke:#038048;stroke-width:1.5;" x1="149" x2="154.5" y1="62" y2="62"/><line style="stroke:#038048;stroke-width:1.5;" x1="154.5" x2="154.5" y1="48" y2="62"/><line style="stroke:#038048;stroke-width:1.5;" x1="154.5" x2="204.5" y1="48" y2="48"/><line style="stroke:#038048;stroke-width:1.5;" x1="204.5" x2="204.5" y1="48" y2="62"/><line style="stroke:#038048;stroke-width:1.5;" x1="204.5" x2="260.5" y1="62" y2="62"/><line style="stroke:#038048;stroke-width:1.5;" x1="260.5" x2="260.5" y1="48" y2="62"/><line style="stroke:#038048;stroke-width:1.5;" x1="260.5" x2="310.5" y1="48" y2="48"/><line style="stroke:#038048;stroke-width:1.5;" x1="310.5" x2="310.5" y1="48" y2="62"/><line style="stroke:#038048;stroke-width:1.5;" x1="310.5" x2="316" y1="62" y2="62"/><line style="stroke:#038048;stroke-width:1.5;" x1="316" x2="316" y1="48" y2="62"/><line style="stroke:#038048;stroke-width:1.5;" x1="316" x2="366" y1="48" y2="48"/><line style="stroke:#038048;stroke-width:1.5;" x1="366" x2="366" y1="48" y2="62"/><line style="stroke:#038048;stroke-width:1.5;" x1="366" x2="372" y1="62" y2="62"/><line style="stroke:#038048;stroke-width:1.5;" x1="372" x2="372" y1="48" y2="62"/><line style="stroke:#038048;stroke-width:1.5;" x1="372" x2="422" y1="48" y2="48"/><line style="stroke:#038048;stroke-width:1.5;" x1="422" x2="422" y1="48" y2="62"/><line style="stroke:#038048;stroke-width:1.5;" x1="422" x2="527.5" y1="62" y2="62"/><line style="stroke:#038048;stroke-width:1.5;" x1="527.5" x2="527.5" y1="48" y2="62"/><line style="stroke:#038048;stroke-width:1.5;" x1="527.5" x2="577.5" y1="48" y2="48"/><line style="stroke:#038048;stroke-width:1.5;" x1="577.5" x2="577.5" y1="48" y2="62"/><line style="stroke:#038048;stroke-width:1.5;" x1="577.5" x2="583" y1="62" y2="62"/><line style="stroke:#038048;stroke-width:1.5;" x1="583" x2="583" y1="48" y2="62"/><line style="stroke:#038048;stroke-width:1.5;" x1="583" x2="633" y1="48" y2="48"/><line style="stroke:#038048;stroke-width:1.5;" x1="633" x2="633" y1="48" y2="62"/><line style="stroke:#038048;stroke-width:1.5;" x1="633" x2="638.5" y1="62" y2="62"/><line style="stroke:#038048;stroke-width:1.5;" x1="638.5" x2="638.5" y1="48" y2="62"/><line style="stroke:#038048;stroke-width:1.5;" x1="638.5" x2="688.5" y1="48" y2="48"/><line style="stroke:#038048;stroke-width:1.5;" x1="688.5" x2="688.5" y1="48" y2="62"/><line style="stroke:#038048;stroke-width:1.5;" x1="688.5" x2="744" y1="62" y2="62"/><line style="stroke:#038048;stroke-width:1.5;" x1="744" x2="744" y1="48" y2="62"/><line style="stroke:#038048;stroke-width:1.5;" x1="744" x2="794" y1="48" y2="48"/><line style="stroke:#038048;stroke-width:1.5;" x1="794" x2="794" y1="48" y2="62"/><line style="stroke:#038048;stroke-width:1.5;" x1="794" x2="844" y1="62" y2="62"/><line style="stroke:#000000;stroke-width:1.7;" x1="10" x2="849" y1="70" y2="70"/><text fill="#000000" font-family="sans-serif" font-size="12" lengthAdjust="spacingAndGlyphs" textLength="97" x="15" y="81.1387">RuningTaskName</text><line style="stroke:#000000;stroke-width:1.0;" x1="10" x2="113" y1="84.9688" y2="84.9688"/><line style="stroke:#000000;stroke-width:1.0;" x1="113" x2="123" y1="84.9688" y2="70"/><polygon fill="#D7E0F2" points="56,89.9688,81.5,89.9688,93.5,101.9688,81.5,113.9688,56,113.9688,44,101.9688" style="stroke:#038048;stroke-width:1.5;"/><polygon fill="#D7E0F2" points="105.5,89.9688,87,89.9688,99,101.9688,87,113.9688,105.5,113.9688,93.5,101.9688" style="stroke:#038048;stroke-width:1.5;"/><polygon fill="#D7E0F2" points="111,89.9688,137,89.9688,149,101.9688,137,113.9688,111,113.9688,99,101.9688" style="stroke:#038048;stroke-width:1.5;"/><polygon fill="#D7E0F2" points="161,89.9688,142.5,89.9688,154.5,101.9688,142.5,113.9688,161,113.9688,149,101.9688" style="stroke:#038048;stroke-width:1.5;"/><polygon fill="#D7E0F2" points="166.5,89.9688,192.5,89.9688,204.5,101.9688,192.5,113.9688,166.5,113.9688,154.5,101.9688" style="stroke:#038048;stroke-width:1.5;"/><polygon fill="#D7E0F2" points="216.5,89.9688,248.5,89.9688,260.5,101.9688,248.5,113.9688,216.5,113.9688,204.5,101.9688" style="stroke:#038048;stroke-width:1.5;"/><polygon fill="#D7E0F2" points="272.5,89.9688,298.5,89.9688,310.5,101.9688,298.5,113.9688,272.5,113.9688,260.5,101.9688" style="stroke:#038048;stroke-width:1.5;"/><polygon fill="#D7E0F2" points="322.5,89.9688,304,89.9688,316,101.9688,304,113.9688,322.5,113.9688,310.5,101.9688" style="stroke:#038048;stroke-width:1.5;"/><polygon fill="#D7E0F2" points="328,89.9688,354,89.9688,366,101.9688,354,113.9688,328,113.9688,316,101.9688" style="stroke:#038048;stroke-width:1.5;"/><polygon fill="#D7E0F2" points="378,89.9688,360,89.9688,372,101.9688,360,113.9688,378,113.9688,366,101.9688" style="stroke:#038048;stroke-width:1.5;"/><polygon fill="#D7E0F2" points="384,89.9688,410,89.9688,422,101.9688,410,113.9688,384,113.9688,372,101.9688" style="stroke:#038048;stroke-width:1.5;"/><polygon fill="#D7E0F2" points="434,89.9688,515.5,89.9688,527.5,101.9688,515.5,113.9688,434,113.9688,422,101.9688" style="stroke:#038048;stroke-width:1.5;"/><polygon fill="#D7E0F2" points="539.5,89.9688,565.5,89.9688,577.5,101.9688,565.5,113.9688,539.5,113.9688,527.5,101.9688" style="stroke:#038048;stroke-width:1.5;"/><polygon fill="#D7E0F2" points="589.5,89.9688,571,89.9688,583,101.9688,571,113.9688,589.5,113.9688,577.5,101.9688" style="stroke:#038048;stroke-width:1.5;"/><polygon fill="#D7E0F2" points="595,89.9688,621,89.9688,633,101.9688,621,113.9688,595,113.9688,583,101.9688" style="stroke:#038048;stroke-width:1.5;"/><polygon fill="#D7E0F2" points="645,89.9688,626.5,89.9688,638.5,101.9688,626.5,113.9688,645,113.9688,633,101.9688" style="stroke:#038048;stroke-width:1.5;"/><polygon fill="#D7E0F2" points="650.5,89.9688,676.5,89.9688,688.5,101.9688,676.5,113.9688,650.5,113.9688,638.5,101.9688" style="stroke:#038048;stroke-width:1.5;"/><polygon fill="#D7E0F2" points="700.5,89.9688,732,89.9688,744,101.9688,732,113.9688,700.5,113.9688,688.5,101.9688" style="stroke:#038048;stroke-width:1.5;"/><polygon fill="#D7E0F2" points="756,89.9688,782,89.9688,794,101.9688,782,113.9688,756,113.9688,744,101.9688" style="stroke:#038048;stroke-width:1.5;"/><text fill="#000000" font-family="sans-serif" font-size="12" lengthAdjust="spacingAndGlyphs" textLength="24" x="56.75" y="106.123">IDLE</text><text fill="#000000" font-family="sans-serif" font-size="12" lengthAdjust="spacingAndGlyphs" textLength="7" x="92.75" y="106.123">A</text><text fill="#000000" font-family="sans-serif" font-size="12" lengthAdjust="spacingAndGlyphs" textLength="24" x="112" y="106.123">IDLE</text><text fill="#000000" font-family="sans-serif" font-size="12" lengthAdjust="spacingAndGlyphs" textLength="7" x="148.25" y="106.123">A</text><text fill="#000000" font-family="sans-serif" font-size="12" lengthAdjust="spacingAndGlyphs" textLength="24" x="167.5" y="106.123">IDLE</text><text fill="#000000" font-family="sans-serif" font-size="12" lengthAdjust="spacingAndGlyphs" textLength="7" x="229" y="106.123">A</text><text fill="#000000" font-family="sans-serif" font-size="12" lengthAdjust="spacingAndGlyphs" textLength="24" x="273.5" y="106.123">IDLE</text><text fill="#000000" font-family="sans-serif" font-size="12" lengthAdjust="spacingAndGlyphs" textLength="7" x="309.75" y="106.123">A</text><text fill="#000000" font-family="sans-serif" font-size="12" lengthAdjust="spacingAndGlyphs" textLength="24" x="329" y="106.123">IDLE</text><text fill="#000000" font-family="sans-serif" font-size="12" lengthAdjust="spacingAndGlyphs" textLength="7" x="365.5" y="106.123">A</text><text fill="#000000" font-family="sans-serif" font-size="12" lengthAdjust="spacingAndGlyphs" textLength="24" x="385" y="106.123">IDLE</text><text fill="#000000" font-family="sans-serif" font-size="12" lengthAdjust="spacingAndGlyphs" textLength="7" x="471.25" y="106.123">A</text><text fill="#000000" font-family="sans-serif" font-size="12" lengthAdjust="spacingAndGlyphs" textLength="24" x="540.5" y="106.123">IDLE</text><text fill="#000000" font-family="sans-serif" font-size="12" lengthAdjust="spacingAndGlyphs" textLength="7" x="576.75" y="106.123">A</text><text fill="#000000" font-family="sans-serif" font-size="12" lengthAdjust="spacingAndGlyphs" textLength="24" x="596" y="106.123">IDLE</text><text fill="#000000" font-family="sans-serif" font-size="12" lengthAdjust="spacingAndGlyphs" textLength="7" x="632.25" y="106.123">A</text><text fill="#000000" font-family="sans-serif" font-size="12" lengthAdjust="spacingAndGlyphs" textLength="24" x="651.5" y="106.123">IDLE</text><text fill="#000000" font-family="sans-serif" font-size="12" lengthAdjust="spacingAndGlyphs" textLength="7" x="712.75" y="106.123">A</text><text fill="#000000" font-family="sans-serif" font-size="12" lengthAdjust="spacingAndGlyphs" textLength="24" x="757" y="106.123">IDLE</text><line style="stroke:#000000;stroke-width:2.0;" x1="44" x2="44" y1="123.9688" y2="128.9688"/><line style="stroke:#000000;stroke-width:2.0;" x1="94" x2="94" y1="123.9688" y2="128.9688"/><line style="stroke:#000000;stroke-width:2.0;" x1="144" x2="144" y1="123.9688" y2="128.9688"/><line style="stroke:#000000;stroke-width:2.0;" x1="194" x2="194" y1="123.9688" y2="128.9688"/><line style="stroke:#000000;stroke-width:2.0;" x1="244" x2="244" y1="123.9688" y2="128.9688"/><line style="stroke:#000000;stroke-width:2.0;" x1="294" x2="294" y1="123.9688" y2="128.9688"/><line style="stroke:#000000;stroke-width:2.0;" x1="344" x2="344" y1="123.9688" y2="128.9688"/><line style="stroke:#000000;stroke-width:2.0;" x1="394" x2="394" y1="123.9688" y2="128.9688"/><line style="stroke:#000000;stroke-width:2.0;" x1="444" x2="444" y1="123.9688" y2="128.9688"/><line style="stroke:#000000;stroke-width:2.0;" x1="494" x2="494" y1="123.9688" y2="128.9688"/><line style="stroke:#000000;stroke-width:2.0;" x1="544" x2="544" y1="123.9688" y2="128.9688"/><line style="stroke:#000000;stroke-width:2.0;" x1="594" x2="594" y1="123.9688" y2="128.9688"/><line style="stroke:#000000;stroke-width:2.0;" x1="644" x2="644" y1="123.9688" y2="128.9688"/><line style="stroke:#000000;stroke-width:2.0;" x1="694" x2="694" y1="123.9688" y2="128.9688"/><line style="stroke:#000000;stroke-width:2.0;" x1="744" x2="744" y1="123.9688" y2="128.9688"/><line style="stroke:#000000;stroke-width:2.0;" x1="794" x2="794" y1="123.9688" y2="128.9688"/><line style="stroke:#000000;stroke-width:2.0;" x1="844" x2="844" y1="123.9688" y2="128.9688"/><line style="stroke:#000000;stroke-width:2.0;" x1="44" x2="844" y1="123.9688" y2="123.9688"/><text fill="#000000" font-family="sans-serif" font-size="12" lengthAdjust="spacingAndGlyphs" textLength="7" x="40.5" y="141.1074">0</text><text fill="#000000" font-family="sans-serif" font-size="12" lengthAdjust="spacingAndGlyphs" textLength="21" x="83.5" y="141.1074">100</text><text fill="#000000" font-family="sans-serif" font-size="12" lengthAdjust="spacingAndGlyphs" textLength="21" x="133.5" y="141.1074">200</text><text fill="#000000" font-family="sans-serif" font-size="12" lengthAdjust="spacingAndGlyphs" textLength="21" x="183.5" y="141.1074">300</text><text fill="#000000" font-family="sans-serif" font-size="12" lengthAdjust="spacingAndGlyphs" textLength="21" x="233.5" y="141.1074">400</text><text fill="#000000" font-family="sans-serif" font-size="12" lengthAdjust="spacingAndGlyphs" textLength="21" x="283.5" y="141.1074">500</text><text fill="#000000" font-family="sans-serif" font-size="12" lengthAdjust="spacingAndGlyphs" textLength="21" x="333.5" y="141.1074">600</text><text fill="#000000" font-family="sans-serif" font-size="12" lengthAdjust="spacingAndGlyphs" textLength="21" x="383.5" y="141.1074">700</text><text fill="#000000" font-family="sans-serif" font-size="12" lengthAdjust="spacingAndGlyphs" textLength="21" x="433.5" y="141.1074">800</text><text fill="#000000" font-family="sans-serif" font-size="12" lengthAdjust="spacingAndGlyphs" textLength="21" x="483.5" y="141.1074">900</text><text fill="#000000" font-family="sans-serif" font-size="12" lengthAdjust="spacingAndGlyphs" textLength="28" x="530" y="141.1074">1000</text><text fill="#000000" font-family="sans-serif" font-size="12" lengthAdjust="spacingAndGlyphs" textLength="28" x="580" y="141.1074">1100</text><text fill="#000000" font-family="sans-serif" font-size="12" lengthAdjust="spacingAndGlyphs" textLength="28" x="630" y="141.1074">1200</text><text fill="#000000" font-family="sans-serif" font-size="12" lengthAdjust="spacingAndGlyphs" textLength="28" x="680" y="141.1074">1300</text><text fill="#000000" font-family="sans-serif" font-size="12" lengthAdjust="spacingAndGlyphs" textLength="28" x="730" y="141.1074">1400</text><text fill="#000000" font-family="sans-serif" font-size="12" lengthAdjust="spacingAndGlyphs" textLength="28" x="780" y="141.1074">1500</text><text fill="#000000" font-family="sans-serif" font-size="12" lengthAdjust="spacingAndGlyphs" textLength="28" x="830" y="141.1074">1600</text><text fill="#000000" font-family="sans-serif" font-size="14" lengthAdjust="spacingAndGlyphs" textLength="312" x="273.5" y="150.9326">sample_vTaskDelay.c TaskSwitch Timing Diagram</text><!--MD5=[0655d8cebf4915f3dc8c3af00b132df9]
@startuml
binary "A" as A
binary "IDLE" as IDLE
concise "RuningTaskName" as RuningTaskName

caption sample_vTaskDelay.c TaskSwitch Timing Diagram

scale 100 as 50 pixels

@0
A is low
IDLE is high
RuningTaskName is IDLE

@99
IDLE is low
A is high
RuningTaskName is A

@110
A is low
IDLE is high
RuningTaskName is IDLE

@210
IDLE is low
A is high
RuningTaskName is A

@221
A is low
IDLE is high
RuningTaskName is IDLE

@321
IDLE is low
A is high
RuningTaskName is A

@433
A is low
IDLE is high
RuningTaskName is IDLE

@533
IDLE is low
A is high
RuningTaskName is A

@544
A is low
IDLE is high
RuningTaskName is IDLE

@644
IDLE is low
A is high
RuningTaskName is A

@656
A is low
IDLE is high
RuningTaskName is IDLE

@756
IDLE is low
A is high
RuningTaskName is A

@967
A is low
IDLE is high
RuningTaskName is IDLE

@1067
IDLE is low
A is high
RuningTaskName is A

@1078
A is low
IDLE is high
RuningTaskName is IDLE

@1178
IDLE is low
A is high
RuningTaskName is A

@1189
A is low
IDLE is high
RuningTaskName is IDLE

@1289
IDLE is low
A is high
RuningTaskName is A

@1400
A is low
IDLE is high
RuningTaskName is IDLE

@1500
IDLE is {hidden}
A is {hidden}
RuningTaskName is {hidden}

@enduml

PlantUML version 1.2020.23(Sun Dec 13 19:14:58 GMT 2020)
(GPL source distribution)
Java Runtime: OpenJDK Runtime Environment
JVM: OpenJDK 64-Bit Server VM
Default Encoding: UTF-8
Language: en
Country: US
--></g></svg>